<?xml version="1.0" encoding="UTF-8"?><svg id="Layer_1" xmlns="http://www.w3.org/2000/svg" width=".7521in" height="1.0864in" viewBox="0 0 54.1523 78.2207"><defs><style>.cls-1{fill:#ff552e;}.cls-1,.cls-2{stroke-width:0px;}.cls-2{fill:#13294b;}</style></defs><path class="cls-2" d="M54.1523,21.0595V0H0v21.0595h12.0342v36.1016H0v21.0596h54.1523v-21.0596h-12.0332V21.0595h12.0332ZM42.1191,60.1699h9.0254v15.042H3.0078v-15.042h9.0264c1.6601,0,3.0078-1.3477,3.0078-3.0088V21.0595c0-1.6621-1.3477-3.0088-3.0078-3.0088H3.0078V3.0088h48.1367v15.0419h-9.0254c-1.6621,0-3.0087,1.3467-3.0087,3.0088v36.1016c0,1.6611,1.3466,3.0088,3.0087,3.0088Z"/><path class="cls-1" d="M42.1191,18.0507h9.0254V3.0088H3.0078v15.0419h9.0264c1.6601,0,3.0078,1.3467,3.0078,3.0088v36.1016c0,1.6611-1.3477,3.0088-3.0078,3.0088H3.0078v15.042h48.1367v-15.042h-9.0254c-1.6621,0-3.0087-1.3477-3.0087-3.0088V21.0595c0-1.6621,1.3466-3.0088,3.0087-3.0088Z"/></svg>