<?xml version="1.0" encoding="UTF-8"?><svg id="Layer_2" xmlns="http://www.w3.org/2000/svg" width="1000.8511" height="1000.8511" viewBox="0 0 1000.8511 1000.8511"><defs><style>.cls-1{fill:#fff;}.cls-1,.cls-2{stroke-width:0px;}.cls-2{fill:#5073b8;}</style></defs><rect class="cls-2" width="1000.8511" height="1000.8511" rx="71.305" ry="71.305"/><rect class="cls-1" x="216.0357" y="377.6571" width="131.0534" height="423.364"/><path class="cls-1" d="m280.9169,322.229c42.8134,0,77.5029-35.0178,77.5029-78.1404s-34.6895-78.1184-77.5029-78.1184-77.4829,34.9787-77.4829,78.1184,34.6825,78.1404,77.4829,78.1404Z"/><path class="cls-1" d="m556.5543,578.7812c0-59.5266,27.4083-94.9888,79.8529-94.9888,48.186,0,71.3477,34.05,71.3477,94.9888v222.24h130.4279v-268.069c0-113.3904-64.2757-168.2321-154.031-168.2321-89.8074,0-127.5975,69.9575-127.5975,69.9575v-57.0205h-125.7011v423.364h125.7011v-222.24Z"/></svg>