<?xml version="1.0" encoding="UTF-8"?><svg id="Layer_2" xmlns="http://www.w3.org/2000/svg" width="1000.8511" height="1000.8511" viewBox="0 0 1000.8511 1000.8511"><defs><style>.cls-1{fill:#ef382e;}.cls-1,.cls-2{stroke-width:0px;}.cls-2{fill:#fff;}</style></defs><rect class="cls-1" y="0" width="1000.8511" height="1000.8511" rx="71.305" ry="71.305"/><path class="cls-2" d="m168.2738,267.1223v470.6097h668.612v-470.6097H168.2738Zm32.3726,415.2622v-359.8681l180.0358,180.143-180.0358,179.7251Zm250.846-109.1493c7.6922,7.6636,40.2565,21.0236,51.24,21.0236,11.1233,0,43.5583-13.4257,50.9146-21.0044l48.0973-47.6074,179.7601,179.7135H223.6763l180.0253-179.7008,47.7908,47.5755Zm79.5263-22.7872c-3.9622,2.5652-23.0459,10.2097-28.2863,11.3628-5.2415-1.1531-24.3232-8.7956-28.2854-11.3606l-250.8068-250.9553h558.1844l-250.8059,250.953Zm93.7566-47.7886l179.7369-180.1207v359.8247l-179.7369-179.704Z"/></svg>