<?xml version="1.0" encoding="UTF-8"?><svg id="Layer_2" xmlns="http://www.w3.org/2000/svg" width="1000.8511" height="1000.8511" viewBox="0 0 1000.8511 1000.8511"><defs><style>.cls-1{fill:#fff;}.cls-1,.cls-2{stroke-width:0px;}.cls-2{fill:#a14d9d;}</style></defs><rect class="cls-2" width="1000.8511" height="1000.8511" rx="71.305" ry="71.305"/><path class="cls-1" d="m436.5913,701.3214c19.2243-3.9774,35.9466-11.4037,50.1006-22.2469,12.5287-9.421,23.0106-21.0599,31.4037-34.8656,13.1482-20.8968,19.7248-44.4268,19.7248-70.7221,0-25.4516-5.7739-47.1251-17.2617-64.9532-11.5148-17.8422-28.5863-30.9103-51.2146-39.1263,14.8927-7.6045,26.1442-16.0316,33.8338-25.2555,13.6676-16.413,20.5204-38.2105,20.5204-65.2895,0-26.2613-6.7868-48.8175-20.3623-67.6796-22.5562-30.6591-60.8528-46.3945-114.8912-47.2111h-214.3027v443.38h199.8059c22.4962,0,43.4189-2.0277,62.6433-6.0301Zm-174.0185-360.3344h96.463c21.2456,0,38.7052,2.2849,52.3991,6.9329,15.9065,6.5966,23.8323,20.2372,23.8323,40.8838,0,18.6509-6.0301,31.6539-18.0383,38.9551-11.9822,7.3142-27.6185,10.9753-46.8889,10.9753h-107.7671v-97.7471Zm0,289.349v-118.1885h109.1168c19.0857.1912,33.8273,2.6993,44.3412,7.5114,18.809,8.6183,28.23,24.4518,28.23,47.5144,0,27.2562-9.7042,45.7299-29.1328,55.3551-10.6851,5.2204-25.6753,7.8076-44.8802,7.8076h-107.6751Z"/><path class="cls-1" d="m612.9132,678.1407c33.3654,26.8999,71.8531,40.3373,115.4762,40.3373,52.873,0,94.0079-15.9195,123.3309-47.8367,18.9151-20.0601,29.5081-39.8179,31.799-59.2454h-87.5224c-5.0763,9.6242-10.9753,17.1306-17.651,22.5552-12.1994,10.0265-28.0659,15.0438-47.5925,15.0438-18.4277,0-34.1691-4.1215-47.2572-12.3385-21.5223-13.2393-32.958-36.3019-34.2812-69.1998h238.774c.4284-28.3031-.5194-49.9895-2.8044-65.0523-3.9964-25.7159-12.7068-48.3171-26.1362-67.7786-14.8666-22.0878-33.7877-38.2775-56.6662-48.5082-22.8254-10.2377-48.5403-15.339-77.1136-15.339-48.0138,0-87.0881,15.1419-117.2277,45.4527-30.0996,30.2848-45.1564,73.8348-45.1564,130.6321,0,60.6155,16.6822,104.3698,50.0285,131.2776Zm61.2411-217.9643c12.1403-12.4756,29.1718-18.7169,51.1605-18.7169,20.2182,0,37.2106,5.892,50.8723,17.657,13.6676,11.778,21.2781,29.0607,22.8384,51.8131h-147.7036c3.1146-21.3442,10.7251-38.2635,22.8324-50.7532Z"/><rect class="cls-1" x="623.3811" y="289.4702" width="192.6628" height="44.7551"/></svg>