<?xml version="1.0" encoding="UTF-8"?><svg id="Layer_2" xmlns="http://www.w3.org/2000/svg" width="1000" height="1000" viewBox="0 0 1000 1000"><defs><style>.cls-1,.cls-2,.cls-3{stroke-width:0px;}.cls-2{fill:#fff;}.cls-3{fill:#231f20;}.cls-4{fill:#42b658;stroke:#231f20;stroke-miterlimit:10;stroke-width:42px;}</style></defs><path class="cls-4" d="m126.5915,910.2486c22.6102-127.2205,92.2092-230.1404,173.5055-285.052,84.5684-57.1217,180.4462-67.8571,273.2068-58.3197,77.201,7.9376,155.6111,30.3418,221.8334,89.5116,48.4072,43.252,89.8844,108.5579,110.7188,186.9867,20.9519,78.8716,7.9193,108.4482-45.7471,120.217-81.6806,17.9122-163.9354-9.5554-245.647-7.225-101.8373,2.9048-203.6746,5.8096-305.5128,8.7144-48.1724,1.3741-99.2831-5.502-146.3125,7.6768-15.1203,4.2371-34.8447-.5766-39.1373-22.4148-1.5666-7.9697-.5866-16.5028.5928-24.6168.7555-5.1977,1.5894-10.3576,2.4995-15.4782Z"/><path class="cls-2" d="m94.8422,561.5012c-45.8854,38.8127-55.5035,105.5496-53.659,165.6204.3612,11.7627,1.1582,23.9622,6.7635,34.3097,5.5194,10.1889,15.0912,17.4578,24.4863,24.2409,43.4295,31.3555,90.0249,59.6567,141.5417,74.3298,51.5169,14.6731,108.752,14.672,156.8561-8.8924,20.4262-10.006,39.1334-24.3764,51.5737-43.4182,13.4744-20.6247,18.8996-45.4727,21.5972-69.9607,4.8722-44.2284,1.4618-89.9986-15.2223-131.2481s-47.4578-77.6483-87.8804-96.2466c-24.0683-11.0737-50.6858-15.6194-77.1384-17.091-35.6419-1.9828-72.2106,1.613-104.8932,15.97-32.6826,14.357-61.1844,40.3856-73.4823,73.8974"/><path class="cls-1" d="m78.9322,545.5913c-30.9995,26.3526-48.1336,65.9741-55.0917,105.338-3.6383,20.5831-5.3528,41.4728-5.3685,62.3668-.0091,12.1026.4299,24.1068,2.2154,36.0939,2.1116,14.1766,8.5491,26.8812,18.2094,37.4173,8.2232,8.9687,18.697,15.8631,28.5725,22.8687,9.1494,6.4906,18.4209,12.8111,27.8541,18.8826,18.8239,12.1156,38.3127,23.2564,58.6462,32.6472,21.7022,10.0229,44.1943,18.5958,67.5236,23.9679,22.9695,5.2893,46.8675,8.084,70.4509,7.2866,47.2879-1.5989,96.299-16.878,130.9178-50.2955,17.9185-17.2968,29.8678-39.4754,36.4554-63.3673,3.393-12.3057,5.252-24.9463,6.7838-37.5996,1.3762-11.3676,2.1879-22.8094,2.389-34.2587.8331-47.4462-8.7564-96.0804-32.8161-137.3816-10.5516-18.113-23.9076-35.1131-39.5151-49.1421-8.412-7.5612-17.5078-14.5492-27.1089-20.5383-10.1792-6.3497-21.123-11.3547-32.3383-15.583-23.1935-8.7442-48.3096-12.2786-72.9511-13.6492-24.4616-1.3606-49.1326.0967-73.1663,4.9789-11.1469,2.2644-22.1164,5.4424-32.6761,9.681-10.746,4.3134-21.1946,9.1309-30.983,15.3426-19.2148,12.1938-35.7366,27.8413-48.4815,46.7123-6.2124,9.1985-10.9167,19.276-14.765,29.6711-1.9246,5.1989-.438,12.7131,2.2682,17.3376,2.7312,4.6673,8.0828,9.1184,13.4467,10.3401,5.7597,1.3119,12.225,1.028,17.3376-2.2682l4.5537-3.5182c2.7886-2.8074,4.7174-6.1169,5.7864-9.9285.5658-1.5283,1.1613-3.0438,1.787-4.5486l-2.2682,5.3748c3.9526-9.3579,9.1518-18.1053,15.3426-26.1532l-3.5182,4.5537c7.144-9.1942,15.4892-17.3622,24.6952-24.4811l-4.5537,3.5182c10.3493-7.9337,21.6717-14.4665,33.6633-19.58l-5.3748,2.2682c16.1056-6.786,33.1148-11.0569,50.4142-13.394l-5.9814.8037c24.8788-3.2817,50.3695-2.8905,75.2285.3983l-5.9814-.8037c17.0122,2.3004,33.8004,6.2887,49.6719,12.9104l-5.3748-2.2682c12.3798,5.2336,23.9714,12.0745,34.6152,20.2763l-4.5537-3.5182c11.7118,9.0952,22.1503,19.7058,31.2495,31.406l-3.5182-4.5537c10.3685,13.4235,18.9206,28.1695,25.5459,43.7796l-2.2682-5.3748c7.9792,18.9631,13.1194,38.9933,15.9122,59.3571l-.8037-5.9814c3.6667,27.2984,3.2183,55.1024-.4425,82.3778l.8037-5.9814c-2.0813,15.2195-5.3883,30.3258-11.3026,44.5483l2.2682-5.3748c-3.6391,8.6157-8.2263,16.7526-13.9103,24.1876l3.5182-4.5537c-6.1611,7.9552-13.3833,14.9789-21.3226,21.1476l4.5537-3.5182c-10.5814,8.1383-22.2682,14.6833-34.5451,19.892l5.3748-2.2682c-15.5407,6.521-31.91,10.7839-48.6002,13.0458l5.9814-.8037c-20.5253,2.7121-41.3359,2.4145-61.8426-.315l5.9814.8037c-25.9248-3.5225-51.0733-11.0348-75.1482-21.1907l5.3748,2.2682c-30.9544-13.1301-59.9392-30.4346-87.5992-49.4605-7.6666-5.2735-15.3376-10.5917-22.7238-16.2541l4.5537,3.5182c-5.1955-4.0177-10.1407-8.3549-14.2042-13.5421l3.5182,4.5537c-2.3142-3.0353-4.2353-6.2806-5.7403-9.7896l2.2682,5.3748c-1.9663-4.7901-3.126-9.8052-3.8434-14.9231l.8037,5.9814c-1.6711-12.6741-1.5036-25.7473-1.2047-38.5089.2857-12.1987,1.1548-24.3841,2.7755-36.4799l-.8037,5.9814c2.5588-18.7898,6.9659-37.3826,14.3093-54.9047l-2.2682,5.3748c4.9207-11.6274,11.1312-22.6732,18.8536-32.6765l-3.5182,4.5537c5.3007-6.8027,11.2515-13.0493,17.823-18.6358,4.1817-3.5549,6.5901-10.6097,6.5901-15.9099,0-5.5185-2.4512-12.1104-6.5901-15.9099-4.2879-3.9362-9.9175-6.8585-15.9099-6.5901-1.9938.2679-3.9876.5358-5.9814.8037-3.8116,1.069-7.1211,2.9978-9.9285,5.7864h0Z"/><path class="cls-2" d="m607.8314,561.5012c-45.8854,38.8127-55.5035,105.5496-53.659,165.6204.3612,11.7627,1.1582,23.9622,6.7635,34.3097,5.5194,10.1889,15.0912,17.4578,24.4863,24.2409,43.4295,31.3555,90.0249,59.6567,141.5417,74.3298,51.5169,14.6731,108.752,14.672,156.8561-8.8924,20.4262-10.006,39.1334-24.3764,51.5737-43.4182,13.4744-20.6247,18.8996-45.4727,21.5972-69.9607,4.8722-44.2284,1.4618-89.9986-15.2223-131.2481-16.6841-41.2495-47.4578-77.6483-87.8804-96.2466-24.0683-11.0737-50.6858-15.6194-77.1384-17.091-35.6419-1.9828-72.2106,1.613-104.8932,15.97-32.6826,14.357-61.1844,40.3856-73.4823,73.8974"/><path class="cls-1" d="m591.9215,545.5913c-30.9995,26.3526-48.1336,65.9741-55.0917,105.338-3.6383,20.5831-5.3528,41.4728-5.3685,62.3668-.0091,12.1026.4299,24.1068,2.2154,36.0939,2.1116,14.1766,8.5491,26.8812,18.2094,37.4173,8.2232,8.9687,18.697,15.8631,28.5725,22.8687,9.1494,6.4906,18.4209,12.8111,27.8541,18.8826,18.8239,12.1156,38.3127,23.2564,58.6462,32.6472,21.7022,10.0229,44.1943,18.5958,67.5236,23.9679,22.9695,5.2893,46.8675,8.084,70.4509,7.2866,47.2879-1.5989,96.299-16.878,130.9178-50.2955,17.9185-17.2968,29.8678-39.4754,36.4554-63.3673,3.393-12.3057,5.252-24.9463,6.7838-37.5996,1.3762-11.3676,2.1879-22.8094,2.389-34.2587.8331-47.4462-8.7564-96.0804-32.8161-137.3816-10.5516-18.113-23.9076-35.1131-39.5151-49.1421-8.412-7.5612-17.5078-14.5492-27.1089-20.5383-10.1792-6.3497-21.123-11.3547-32.3383-15.583-23.1935-8.7442-48.3096-12.2786-72.9511-13.6492-24.4616-1.3606-49.1326.0967-73.1663,4.9789-11.1469,2.2644-22.1164,5.4424-32.6761,9.681-10.746,4.3134-21.1946,9.1309-30.983,15.3426-19.2148,12.1938-35.7366,27.8413-48.4815,46.7123-6.2124,9.1985-10.9167,19.276-14.765,29.6711-1.9246,5.1989-.438,12.7131,2.2682,17.3376,2.7312,4.6673,8.0828,9.1184,13.4467,10.3401,5.7597,1.3119,12.225,1.028,17.3376-2.2682l4.5537-3.5182c2.7886-2.8074,4.7174-6.1169,5.7864-9.9285.5658-1.5283,1.1613-3.0438,1.787-4.5486l-2.2682,5.3748c3.9526-9.3579,9.1518-18.1053,15.3426-26.1532l-3.5182,4.5537c7.144-9.1942,15.4892-17.3622,24.6952-24.4811l-4.5537,3.5182c10.3493-7.9337,21.6717-14.4665,33.6633-19.58l-5.3748,2.2682c16.1056-6.786,33.1148-11.0569,50.4142-13.394l-5.9814.8037c24.8788-3.2817,50.3695-2.8905,75.2285.3983l-5.9814-.8037c17.0122,2.3004,33.8004,6.2887,49.6719,12.9104l-5.3748-2.2682c12.3798,5.2336,23.9714,12.0745,34.6152,20.2763l-4.5537-3.5182c11.7118,9.0952,22.1503,19.7058,31.2495,31.406l-3.5182-4.5537c10.3685,13.4235,18.9206,28.1695,25.5459,43.7796l-2.2682-5.3748c7.9792,18.9631,13.1194,38.9933,15.9122,59.3571l-.8037-5.9814c3.6667,27.2984,3.2183,55.1024-.4425,82.3778l.8037-5.9814c-2.0813,15.2195-5.3883,30.3258-11.3026,44.5483l2.2682-5.3748c-3.6391,8.6157-8.2263,16.7526-13.9103,24.1876l3.5182-4.5537c-6.1611,7.9552-13.3833,14.9789-21.3226,21.1476l4.5537-3.5182c-10.5814,8.1383-22.2682,14.6833-34.5451,19.892l5.3748-2.2682c-15.5407,6.521-31.91,10.7839-48.6002,13.0458l5.9814-.8037c-20.5253,2.7121-41.3359,2.4145-61.8426-.315l5.9814.8037c-25.9248-3.5225-51.0733-11.0348-75.1482-21.1907l5.3748,2.2682c-30.9544-13.1301-59.9392-30.4346-87.5992-49.4605-7.6666-5.2735-15.3376-10.5917-22.7238-16.2541l4.5537,3.5182c-5.1955-4.0177-10.1407-8.3549-14.2042-13.5421l3.5182,4.5537c-2.3142-3.0353-4.2353-6.2806-5.7403-9.7896l2.2682,5.3748c-1.9663-4.7901-3.126-9.8052-3.8434-14.9231l.8037,5.9814c-1.6711-12.6741-1.5036-25.7473-1.2047-38.5089.2857-12.1987,1.1548-24.3841,2.7755-36.4799l-.8037,5.9814c2.5588-18.7898,6.9659-37.3826,14.3093-54.9047l-2.2682,5.3748c4.9207-11.6274,11.1312-22.6732,18.8536-32.6765l-3.5182,4.5537c5.3007-6.8027,11.2515-13.0493,17.823-18.6358,4.1817-3.5549,6.5901-10.6097,6.5901-15.9099,0-5.5185-2.4512-12.1104-6.5901-15.9099-4.2879-3.9362-9.9175-6.8585-15.9099-6.5901-1.9938.2679-3.9876.5358-5.9814.8037-3.8116,1.069-7.1211,2.9978-9.9285,5.7864h0Z"/><path class="cls-1" d="m252.5084,670.3611c.9621-8.3157,8.0785-31.9994-9.2294-28.2681-20.7895,4.4819-25.8953,36.5447-25.3619,53.818.2034,6.5869,1.359,13.5227,5.5944,18.5714,6.8802,8.2014,20.437,8.4528,29.0983,2.1615,5.5526-4.0332,9.3295-10.1156,11.835-16.5048,5.0015-12.7539,5.5333-27.2059,3.7623-40.6739-.8336-6.3393-4.4244-22.9933-13.7686-14.9096-4.8027,4.155-8.7089,13.5225-11.384,19.2249-3.7368,7.9655-6.4687,16.414-7.8902,25.1036-.4135,2.528-.7105,5.1658.0439,7.6138s2.8205,4.6622,5.3772,4.8208c3.9753.2466,6.5499-4.1516,7.4669-8.0275.8939-3.7785,1.1607-7.7047.786-11.5694"/><path class="cls-3" d="m254.3834,670.3611c.0172-.1454.0351-.2907.0541-.4359-.052.397.0094-.0558.0322-.2026.0571-.3681.1144-.7361.1754-1.1035.1435-.8639.2981-1.7259.4508-2.5881.3381-1.9098.6695-3.8211.9352-5.7426.5658-4.0916.9946-8.3364.1318-12.42-.7546-3.5713-2.9389-6.7406-6.6159-7.6957-4.4821-1.1642-9.6826.5103-13.5643,2.7518-8.8179,5.0917-13.6303,15.0649-16.38,24.4766-2.7663,9.4685-3.9784,19.663-3.5214,29.5207.3236,6.9796,1.8094,14.387,6.7686,19.6321,4.1056,4.3423,10.156,6.3957,16.0471,6.3556,6.3233-.0429,12.3533-2.3939,17.0757-6.5787,5.4151-4.7987,8.8918-11.4455,11.2022-18.2096,2.5451-7.4511,3.6652-15.3757,3.8135-23.2309.1219-6.4579-.2807-13.0671-1.5561-19.4109-.8469-4.2123-2.096-8.7895-4.8896-12.1578-1.2583-1.5172-2.982-2.631-4.9784-2.7884-2.3935-.1887-4.5709,1.104-6.3303,2.5939-4.7309,4.0063-7.4709,10.3541-10.0186,15.8529-3.2052,6.9177-6.2014,13.8533-8.1298,21.2531-.9993,3.8346-1.9418,7.8423-2.1823,11.8087-.2187,3.6059.7301,7.3657,3.711,9.6473,2.6748,2.0473,6.187,1.9168,8.796-.1549,2.3622-1.8756,3.7532-4.8688,4.4502-7.7446.9534-3.9335,1.2163-8.0422.853-12.0678-.2152-2.3841-3.9672-2.4068-3.75,0,.3343,3.7037.1578,7.4491-.7191,11.0709-.5503,2.2729-1.6528,5.1796-3.8904,6.3018-2.3809,1.194-4.6391-.89-5.3376-3.0951-1.0711-3.3815.013-7.3549.7262-10.714,1.5288-7.2004,3.9521-14.1611,7.0573-20.8285,2.4236-5.2038,4.678-10.5951,8.0328-15.2888,1.2817-1.7932,2.9565-3.8343,5.0782-4.6648,1.2155-.4758,2.1394-.2609,2.9901.4465,2.6338,2.19,3.7431,6.4497,4.5327,9.7773,1.2242,5.1595,1.6075,9.9273,1.7757,15.4316.2194,7.1783-.3251,14.3975-2.0268,21.3865-2.8468,11.6923-9.3501,24.7098-22.2724,27.2291-5.0129.9773-10.4873.2019-14.7825-2.6433-5.1059-3.3822-7.2611-9.5198-7.9837-15.3506-1.1187-9.0267-.1672-18.6029,1.8072-27.4428,1.9337-8.6576,5.1878-17.8416,11.7877-24.0774,3.0209-2.8543,6.7798-4.847,10.8976-5.5253,1.7178-.283,3.2917-.3051,4.8187.3519-.2363-.1017.4179.2366.5161.297.1483.0912.2951.1875.434.2926-.3074-.2327.1268.1222.1515.1457.1215.1152.6804.7328.5107.514.2505.3228.4637.6788.6541,1.0396.4887.9261.9491,2.8034,1.0516,3.9296.1634,1.7951.1425,3.5951.015,5.392-.2474,3.4882-.8707,6.8453-1.4854,10.337-.2531,1.4378-.4975,2.8769-.6695,4.327-.1195,1.0072.9473,1.875,1.875,1.875,1.1127,0,1.7552-.8648,1.875-1.875h0Z"/><path class="cls-1" d="m776.904,664.5632c-11.1422,12.0918-10.8811,32.9365.5605,44.7454.8242.8507,1.7587,1.6907,2.9194,1.9272,1.0815.2204,2.1948-.1185,3.2209-.525,12.5195-4.9604,18.3225-19.0662,22.8188-31.7598,2.0462-5.7767,4.1214-11.918,2.8564-17.9144-1.0204-4.8371-4.1108-8.9678-7.4378-12.6243-6.8242-7.5001-15.015-13.7529-24.0487-18.3588-3.9834-2.031-8.2675-3.7737-12.7387-3.776-4.8766-.0026-9.5458,2.0799-13.585,4.8124-15.0659,10.1919-22.3774,29.401-21.5191,47.5701.8583,18.1692,8.8761,35.3452,19.2021,50.3194,2.0978,3.0422,4.5701,6.2109,8.1393,7.1682,2.4974.6699,5.1497.1354,7.6441-.5458,8.3859-2.2902,16.4825-6.3722,22.2802-12.8494,7.3504-8.2118,10.3696-19.5814,10.4913-30.6017.1217-11.0203-2.3908-21.8801-4.8888-32.6142-1.003-4.3099-2.0615-8.7454-4.6446-12.3383-6.0568-8.4248-17.9863-9.4295-28.3598-9.6582-4.7359-.1044-9.5585-.1982-14.1086,1.1197"/><path class="cls-3" d="m775.1362,662.7954c-9.6304,10.5794-11.4061,26.629-5.4816,39.469,1.4472,3.1365,3.428,6.0543,5.8037,8.5628,1.5398,1.6259,3.3991,3.0071,5.7408,2.9766,2.006-.0261,3.9902-.9814,5.7441-1.8707,6.3118-3.2004,10.9932-8.8731,14.424-14.9379,3.7135-6.5646,6.3802-13.8177,8.7009-20.9762,1.4499-4.4723,2.5238-9.2108,1.9015-13.9286-.5592-4.2391-2.4827-8.0624-5.0375-11.4487-5.1017-6.7623-11.6954-12.5258-18.6705-17.2864-3.5595-2.4294-7.311-4.6306-11.2225-6.4452-4.0788-1.8922-8.4976-3.3768-13.0563-3.0986-8.1728.4986-15.6251,5.5724-21.1652,11.3117-5.1817,5.3681-9.0091,11.8805-11.5952,18.8553-5.6054,15.118-4.5963,31.7497.557,46.8404,2.7843,8.1533,6.6461,15.924,11.1731,23.2441,4.1691,6.7413,9.1317,15.8376,18.3899,14.7929,4.3303-.4886,8.5945-2.0602,12.5712-3.7858,3.76-1.6315,7.2654-3.717,10.4818-6.2571,6.404-5.0574,10.7964-12.1041,13.249-19.8358,2.5836-8.1445,2.9969-16.8443,2.1786-25.3034-.9165-9.474-2.9922-18.9489-5.4063-28.147-1.0792-4.1119-2.6418-8.0808-5.4494-11.3307-2.3424-2.7114-5.4238-4.6195-8.7083-5.9751-6.7088-2.769-14.2304-3.0573-21.3928-3.2012-4.6391-.0932-9.3233-.026-13.825,1.2293-3.095.8631-1.7804,5.6885,1.3292,4.8214,4.1577-1.1594,8.4507-1.1348,12.7329-1.0457,3.3189.069,6.6404.1883,9.9401.5716,5.9675.6931,12.3208,2.4271,16.3883,7.1353,2.3632,2.7355,3.4551,6.3127,4.3244,9.7509,1.0634,4.2062,2.0075,8.4535,2.8925,12.7005,1.7384,8.3422,2.9961,16.8602,2.4259,25.4022-.4795,7.1836-2.3405,14.4044-6.0945,20.5931-3.7942,6.2551-9.5332,10.8039-16.0995,13.9007-3.3568,1.5831-6.9793,2.8518-10.6173,3.6016-1.6806.3464-3.5074.4748-5.1255-.2078-1.5019-.6335-2.7023-1.8102-3.7563-3.0185-2.4418-2.7992-4.4012-6.1287-6.3398-9.2855-2.0885-3.4008-4.031-6.8926-5.7849-10.4778-6.4728-13.2314-10.4205-28.313-8.3253-43.0908,1.8379-12.9634,8.0382-25.9519,18.8876-33.7165,3.107-2.2236,6.5133-4.0727,10.2887-4.8278,3.769-.7538,7.5629.135,11.0586,1.5739,7.1429,2.9401,13.8775,7.4936,19.7017,12.5276,2.9013,2.5077,5.6509,5.2089,8.1682,8.1031,2.3556,2.7082,4.5369,5.756,5.536,9.246,1.1512,4.0215.441,8.1904-.6943,12.1297-1.0282,3.5676-2.3318,7.0728-3.6554,10.5406-2.2618,5.926-4.923,11.9571-8.9039,16.9519-1.8577,2.3309-4.0114,4.4743-6.5137,6.108-1.2735.8315-2.6335,1.5994-4.0591,2.1375-.6304.238-1.4044.5952-2.076.3505-.6663-.2428-1.2084-.9391-1.676-1.4329-8.2061-8.6672-9.9995-22.7155-5.1664-33.4907,1.2231-2.7268,2.832-5.2596,4.8443-7.4701,2.1621-2.3752-1.3638-5.9212-3.5355-3.5355h0Z"/></svg>