<?xml version="1.0" encoding="UTF-8"?><svg id="Layer_2" xmlns="http://www.w3.org/2000/svg" width="1121.4636" height="150.6336" viewBox="0 0 1121.4636 150.6336"><defs><style>.cls-1{fill:#231f20;stroke-width:0px;}</style></defs><g id="Layer_2-2"><path class="cls-1" d="m1.347,129.4939l2.4175-.514,8.534-3.0812,2.9481-8.9605-1.4344-8.5738.5153-8.5727,1.4374-8.5727-2.6158-8.5728,1.3969-8.575-.9885-8.578,1.7449-8.5753.4332-8.5812-2.2562-9.588,9.0489.8454,7.9696,1.2438,8.1474-1.2482.0796,8.7076.8781,8.5407.2133,8.5407-.319,8.5408-1.3823,8.543,1.0418,8.546-1.6146,8.5433-.3359,8.5492.9634,8.5492-.5181,8.7908-1.4422,8.6783-2.8755,8.7342-7.8228,4.9216-8.5631,2.4989-8.8633.0316-7.696.0528-.3888-10.5259,1.347-10.3386ZM11.511,16.7161l.6765-8.0213,6.3239-5.3109,8.1486-.9579,8.4839.2119,6.1672,5.9438.7022,8.1344.3069,8.7533-7.4736,4.6503-8.1868,2.5834-7.8592-3.2979-5.566-5.3151-1.7238-7.374Z"/><path class="cls-1" d="m124.6605,26.8465l.4796,9.3084-1.3237,9.3576.4557,9.3586-.0125,9.3561.6014,9.3563.5133,9.3587-.4584,9.3619.0485,9.359-.1321,9.3654.2252,9.6501-8.2531.2041-7.9217-1.2765-8.1624,1.0695.5805-7.0496-.8178-6.5383-7.1923,3.7702-8.6013.0892-8.5077-.354-7.6849-3.5192-7.3978-4.4527-4.7491-7.3943-2.0829-8.5-.0393-8.6679-.2272-8.5394-.2949-8.5417-.1542-8.5446,1.2537-8.5419-1.7037-8.5478.7519-8.701,8.1285.219,7.9696-.7198,8.0651.563-.4803,8.4625-.3661,8.3737.3765,8.3766.4911,8.374-.1052,8.3797-.4445,8.3797,3.1056,9.2521,8.5599,3.0307,8.9689-2.7804,3.4746-9.3589-1.184-8.3955.5333-8.3976.057-8.4006.3235-8.3979-1.1665-8.4037.8563-8.3514,7.8608-.1676,7.9194.8402,7.864-.674Z"/><path class="cls-1" d="m140.1557.7753l8.0808-.7753,7.9696.4729,7.8347.5203.6387,9.0741.2763,9.1912-.1048,9.1923-1.0768,9.1937,1.3097,9.1922-2.0346,9.191.8987,9.191-.9092,9.1911,1.7928,9.1935.1263,9.1967-1.3867,9.1938.1411,9.2001.8012,9.4925-8.3019-1.2169-7.9696-.266-8.0053,1.2215,1.1876-9.222-.8656-9.1912.4019-9.1923-.7757-9.1937-.3016-9.1922.333-9.191.2941-9.191.8099-9.1911-1.4578-9.1935.0334-9.1967,1.2959-9.1938-1.5989-9.1958.5628-9.3053Z"/><path class="cls-1" d="m176.6824,16.7161l1.7049-8.1543,6.2337-5.9123,8.4981-1.5812,8.348,1.9131,7.04,5.1741,2.0642,8.5606-2.1004,8.5644-6.9199,5.4011-8.4318.3558-8.242-.7891-5.8638-5.7318-2.3308-7.8004Zm4.5767,23.1206l7.8729-.4158,7.9696-.5121,8.5749.3083-.0951,9.4962.618,8.9565-.2421,8.9565.1936,8.9566-.4274,8.9589-1.3019,8.9621.8069,8.9592-.5558,8.9654.5129,9.067-8.0785.7673-7.9696-.4689-7.8373-.5176-.6318-8.84-.2739-8.9565.1039-8.9565,1.0677-8.9566-1.2987-8.9589,2.0174-8.9621-.8911-8.9592.9016-8.9596-1.0361-8.8901Z"/><path class="cls-1" d="m291.7122,51.2752l1.3219,8.6364-1.1334,8.6364-.2236,8.6365-.2164,8.6387,1.3391,8.6417-1.2075,8.639-.3201,8.6449,1.4594,9.273-8.6021-1.3092-7.9217.7408-8.5783.4156.3393-11.3305-8.7497,2.8325-9.5082,1.2364-9.0875-1.6948-9.0303-2.3312-7.3765-5.9293-4.1971-8.4441-1.8457-9.2292,2.7257-9.2188,4.0706-8.4245,7.2411-6.3769,9.5021-1.7211,9.4371-2.2397,8.9303.6839,7.3047,3.3057.4988-10.9999-3.0135-8.6147-8.2486-3.138-8.5374,3.1747-2.7566,9.9916-8.3332-1.3137-7.9696.1254-8.024.6224,1.3888-9.2489,2.2474-9.0715,5.7053-7.5038,8.239-4.2795,8.6297-3.2997,9.2671-1.0781,9.2325,1.3453,8.8392,2.6843,7.454,5.249,6.4715,6.5696,2.0194,9.0252,1.2172,9.0479Zm-23.0926,34.1274l-4.8697-7.2115-8.5674-3.0132-9.0134,2.005-4.2435,8.2197,4.8694,7.2879,8.3875,3.2456,9.5006-1.8274,3.9364-8.7061Z"/><path class="cls-1" d="m364.2613,74.2503l-.4262,7.6962.676,8.6447,5.6572,6.7414,8.4213,1.4486,7.7441-1.2864,4.863-6.1411,1.8096-6.8424,7.611.0591,7.9217-1.7212,7.9512.7496-1.6464,8.4431-1.8103,8.3183-4.6023,7.1242-6.0896,5.6823-7.3959,3.7652-7.8487,3.7557-8.6519-.2492-8.5693-1.2286-8.2506-2.3312-7.3608-4.3127-5.6956-6.2465-4.6428-7.1147-3.5113-8.0471-.145-8.779.6296-8.7318-.5618-8.7378-.028-8.7378,1.224-8.5833,2.2233-8.3139,4.5326-7.2598,5.0242-7.2957,8.2837-3.1197,8.1839-2.797,8.6638-1.0543,8.6886.0641,8.1889,2.9549,7.1126,4.6995,6.5895,5.322,4.6431,7.2254,1.3926,8.458,1.5691,8.4039-.1467,9.6477-.3502,9.3516-8.3791-.1864-8.7095.1689-8.7125.7496-8.7098.0462-8.7133.0415-8.6471-.4441Zm.0357-19.231l-.1652,1.9343,9.5576.6017,9.5058-.3619,9.5019-.6025.3504-3.0116-1.5526-7.8392-4.8062-6.6058-8.099-1.8587-7.6673,3.5887-5.4195,5.868-1.2058,8.2869Z"/><path class="cls-1" d="m503.3727,27.0329l-1.3968,8.4076-2.5556,8.4311-2.6983,8.3916-1.6875,8.6594-2.8678,8.3453-2.2708,8.5043-1.5724,8.6926-2.24,8.5181-3.3707,8.2142-.7645,8.9142-2.9057,8.6181-10.3066-.4208-10.0821.5382-9.9839-.5954-2.9336-8.2152-2.1297-8.5482-2.0356-8.5718-2.4055-8.4716-2.5532-8.4321-2.4887-8.4495-1.8351-8.6268-1.1739-8.807-2.3955-8.4771-3.182-8.2728-2.6762-9.0248,8.6675-.134,8.0178.2111,8.4133-.0779,1.7166,9.3985,2.7216,8.8197.3124,9.3606,3.6598,8.6117,1.5839,9.0809,2.5474,8.8617,1.6583,9.0677,1.534,8.3715,2.8224-8.0698.5083-9.3094,2.9358-8.7696,1.2671-9.1432,2.8133-8.8026,1.3388-9.1276,2.1398-8.9559,2.1425-8.9674,8.0259-.5068,8.0222.2319,7.6627.5274Z"/><path class="cls-1" d="m534.9029,74.9004l-1.0095,7.0461,2.1254,8.1368,4.4178,6.9088,8.2146,1.7214,7.7615-1.1867,3.8913-6.5489,2.4178-7.415,7.957.1848,7.9217-.965,7.8274,1.1335-1.1929,8.1914-2.5952,8.0684-4.2929,7.1995-5.0446,7.0309-8.2017,2.7791-8.1217,2.2818-8.4723.4019-8.6315-.3018-8.068-2.9824-7.5029-3.9902-6.6681-5.5242-3.2315-8.0366-3.5004-7.9508.3797-8.7045-.3164-8.7318.434-8.7378-.2085-8.7378-.46-8.7335,3.1146-8.1517,4.4018-7.3486,5.8539-6.2551,7.7021-3.7258,8.1982-2.2317,8.503-.5964,8.3813.6163,8.716.4404,7.0228,5.097,6.4027,5.5511,4.0966,7.4357,1.7169,8.2519,2.3518,8.3545-.0917,9.6477.0503,10.2172-9.3382.3108-8.7095-1.3379-8.7125-.3468-8.7098.9628-8.6733.8179-8.1071-.2464Zm.3269-19.8811l-1.0369,1.9375,9.5582-.9342,9.5058.7725,9.4813-.2687.4074-2.9471-2.5381-7.4504-4.3459-6.1112-7.6103-1.9193-7.6325,2.8227-5.7752,5.6972-.0137,8.4009Z"/><path class="cls-1" d="m651.112,27.5238l1.0954,7.4284-1.0644,7.5856-.2742,7.0655-4.5877,1.2336-8.6677,1.2537-7.94,3.8454-4.3171,7.8648-.7978,8.93-.8737,9.7548.5145,9.7517-.5701,9.7584,1.0917,10.1429-8.4352-.3849-7.9696-.1702-7.6246-.1231-1.1928-9.0654,1.7325-9.3576-.696-9.3586-.6818-9.3561.4542-9.3563-.2718-9.3587.9861-9.3619.1864-9.359.0467-9.3654-.3368-8.8794,7.3926-1.1193,7.9696,1.449,8.2355-1.0716-.6625,8.5357-.4155,8.638,9.861-5.8971,10.3905-2.4316,7.4227.7788Z"/><path class="cls-1" d="m660.4954,87.0335l7.574-.4085,7.9696-.5999,8.3753-.6067,3.1736,10.3948,9.2371,4.8395,8.1617-2.944,2.998-7.6981-4.524-8.6955-10.501-.9473-9.4479-2.6305-8.5414-4.5274-7.6827-5.5366-4.9373-8.3708-.6246-9.7553.1618-8.766,3.7186-7.9737,5.0957-7.2282,7.6743-4.397,8.5676-1.4173,8.441-1.423,8.8762.4953,8.7833,2.0376,6.3806,6.3343,5.4071,6.6481,2.9327,8.1498,1.4471,8.3004-7.7598-.2046-7.9217.5898-8.1944.5688-1.0948-9.7151-8.7126-2.0887-7.9458,1.3353-3.478,7.7463,5.1032,7.3323,8.9033,1.0635,7.9676,3.4069,8.4387,1.166,7.6181,3.8828,5.2003,6.6987,3.2206,7.682,1.5681,8.3669-.7304,9.0429-4.3681,7.9154-5.4277,6.9711-7.7197,4.232-8.0177,4.1959-9.0356-.0058-9.4067-1.474-9.1291-2.2961-7.9781-4.9491-5.2478-7.6555-3.8639-8.5376-.7039-8.5442Z"/><path class="cls-1" d="m860.4739,60.491l-.0948,8.5536.5691,8.5538.9403,8.556-.8159,8.559-.5363,8.5562,1.1544,8.5621-.4206,8.4302-7.7733.9985-7.9214-1.2481-8.766,1.0772.938-10.3144-.7505-9.6213.2004-9.6246.4419-9.6216,1.0659-9.6282-1.1473-9.6282-2.9869-8.8584-7.8614-5.0421-8.3843,4.7928-4.373,8.9637,2.1549,9.8458-.7874,9.8493-.7041,9.8461,1.4875,9.8529-.8283,10.0373-8.1454.478-7.9214-1.0051-8.4901.8017-.0425-10.2759.9691-9.8205.0522-9.8173.1695-9.8241-.0539-9.8241-2.6245-9.5629-8.8455-3.2328-9.6577,2.6229-2.9233,10.0287,1.7381,9.8458-.7095,9.8493-.1239,9.8461-.8885,9.8529.4729,9.3902-7.3917.5397-7.9696-.3401-7.7038.0368-.9374-9.1329,1.0231-9.3576.702-9.3586-.0301-9.3561-.8461-9.3563.9298-9.3587-.3345-9.3619.3383-9.359-.1298-9.3654-.1916-8.694,7.1746.4643,7.9696-.6096,7.3774.1714.6049,6.0704-.8584,7.1703,8.8401-2.895,7.989-2.6061,8.5886,1.3562,8.1426,2.9737,6.4056,6.6362,6.1839-7.0784,8.1443-3.4208,8.7587.0811,8.4008,1.1228,8.501,1.8683,6.4044,5.9667,3.6075,7.7818,3.5969,7.9193-1.0668,8.6913Z"/><path class="cls-1" d="m946.3996,51.2752l-.0676,8.6364,1.2713,8.6364-1.1098,8.6365.5855,8.6387-.6783,8.6417-.11,8.639-.0103,8.6449.1395,8.1605-7.3873.8803-7.9217-1.3465-8.3345,1.2494.3979-11.238-8.9181,3.5995-9.6423-.2077-9.015-1.2406-8.9987-2.204-7.2142-5.971-4.7689-8.12-.6746-9.3319,1.5822-9.3086,3.768-8.8503,7.9788-5.541,9.0994-3.3714,9.6825-.1329,8.6418,1.4226,7.542,1.7772.4771-10.9867-3.0422-8.5253-8.1471-4.2293-9.4032,3.5535-2.5431,9.3882-7.6809.1807-7.9696.5364-8.1046.1334,1.1048-9.5207,3.0693-8.7589,6.1217-6.8184,6.9793-6.0705,9.1619-1.5353,9.1209-2.0326,9.3402.7551,8.9139,2.9074,8.1193,4.7201,5.7226,7.4776,2.4155,8.9762.5064,9.1501Zm-22.6609,34.1274l-4.2353-8.5731-9.4177-.8522-9.0619,1.1335-3.48,8.2918,3.4283,8.369,9.1137,2.3693,9.445-2.1213,4.2079-8.6171Z"/><path class="cls-1" d="m1033.9952,60.491l.2932,8.5536-1.1699,8.5538.2232,8.556,1.35,8.559-1.5657,8.5562.8523,8.5621-.7226,8.0772-7.3918-.2057-7.9217.5926-7.892.0735-.6305-9.5943,1.1106-9.6213-1.2971-9.6246.4292-9.6216.2759-9.6282.3342-9.6282-2.0329-10.1488-9.7386-3.4204-9.2658,3.9239-3.091,9.6453-.4344,9.817,1.4748,9.8205.1819,9.8173-1.6982,9.8241,1.3029,10.2829-8.53-1.0781-7.9696-.2282-8.7404,1.5039.032-10.0156.4801-9.3576.5471-9.3586-.2565-9.3561.3002-9.3563.1249-9.3587-.0105-9.3619-.8519-9.359-.2094-9.3654,1.2782-8.8012,7.3006-.4266,7.9696-.3885,8.204-.0252-.643,7.0439.6938,6.6267,7.7712-3.5793,8.7913-1.9699,8.728.912,8.2474,3.1481,5.5469,6.7307,4.7813,6.9403,2.139,8.2448,1.2999,8.5138Z"/><path class="cls-1" d="m1119.6958,64.8113l1.4335,9.259-1.2106,9.2614.3783,9.2646.1827,9.2616.984,9.268-.8598,9.2617-7.909-.2667-7.9217-.2556-7.6667.3015-.1369-8.6722-.0385-8.9015-1.0406-8.9046,1.5858-8.9018.308-8.9079-1.3518-8.9079-2.0311-9.6303-9.0694-4.2136-8.7053,4.677-3.2504,9.1669-.8365,9.817.4514,9.8205-.1525,9.8173-.0517,9.8241.6049,9.9502-8.1197.2461-7.9696-.8102-7.3458-.1205-.7205-8.3413.5821-8.9012-.8059-8.8997.6457-8.8986-.2164-8.8986.1897-8.8987-.3955-8.901-.4097-8.9041-.3054-8.9013.747-8.9074-.4997-9.4125,8.529-.1154,7.9696,1.3085,7.9475-.6683-.0692,8.908.4849,8.7901,7.4351-4.3538,9.0189-1.3338,8.4511,2.2733,8.3278,2.262,5.8933,6.2641,5.8032,6.5816,2.0137,8.5575-.8773,8.6865Z"/></g></svg>