<?xml version="1.0" encoding="UTF-8"?><svg id="Layer_2" xmlns="http://www.w3.org/2000/svg" width="1121.1734" height="151.3259" viewBox="0 0 1121.1734 151.3259"><defs><style>.cls-1{fill:#231f20;stroke-width:0px;}</style></defs><g id="Layer_2-2"><path class="cls-1" d="m1.3324,129.4959l2.4117-.5162,8.5341-3.0808,2.951-8.9606-1.4406-12.8571.5175-12.8604,1.4437-12.8649-2.6272-12.8608,1.403-12.8697-.7226-13.5577,12.6926,1.4295,11.0914.0612,2.3467,12.0065-1.3243,12.8124-1.2492,12.8169,1.3312,12.8128.0143,12.8216.882,12.8216-.9192,13.468-5.691,12.4652-11.8923,6.0775-13.0207,2.665-7.3197-1.2484.5196-10.164.0682-10.4176ZM11.4907,16.7161l3.4102-11.1951,11.7388-3.744,11.2849,4.2815,6.0302,10.6577-5.4329,11.3618-11.8822,2.4076-12.6237-1.5318-2.5253-12.2376Z"/><path class="cls-1" d="m124.645,26.8517l.4747,11.6417-1.3237,11.6981.4557,11.6943-.0125,11.6973.6014,11.7014.5133,11.6977-.4584,11.7057-.0242,11.8794-12.051-.062-12.2113.1793-.1081-13.6128-15.832,3.8945-12.829-1.0028-10.1151-7.8913-6.634-11.0606-1.4988-12.953,1.2122-12.8144-.5411-12.8104.5467-12.8192-1.1842-13.1656,12.3232-.3899,12.2639.4393-.5224,12.8596.2272,12.5585.2949,12.5672.1542,12.5672,1.3316,9.9101,9.4346,2.2771,8.7786-2.8468,3.0948-9.1969-.7198-12.5984.5221-12.5944.5166-12.6031.1616-12.088,11.3326-.1407,11.8256-.3183Z"/><path class="cls-1" d="m140.1428.7672l12.0608-.7672,12.2368.5911-.4637,12.2362.6824,11.949.2763,11.9502-.1048,11.9505-1.0768,11.9466,1.3097,11.9497-2.0346,11.9539.8987,11.9501-.9092,11.9583,1.6009,12.4219-12.4155.3186-11.5242-1.2097.036-11.5235-.9101-11.949,1.3712-11.9502.266-11.9505-1.2378-11.9466,1.1992-11.9497-.8656-11.9539.4019-11.9501-.7757-11.9579-.0217-12.0677Z"/><path class="cls-1" d="m176.6613,16.7161l4.5087-11.3734,11.9286-4.3061,12.2097,3.9667,4.8609,11.7128-4.6356,12.0152-12.4349,3.8477-12.4276-3.8583-4.0097-12.0046Zm4.5709,23.1274l11.8669-.4226,12.5393-.2751.2226,12.1276-.3,11.5141.618,11.5171-.2421,11.5211.1936,11.5174-.4274,11.5253-1.1033,11.0577-11.5007.6249-11.6751-.4443-.4295-11.2309-.7159-11.5141.4689-11.5171.5769-11.5211-.6766-11.5174-.2739-11.5282.8582-11.4346Z"/><path class="cls-1" d="m291.6918,51.2752l1.3219,11.5138-1.1334,11.5168-.2236,11.5208-.2164,11.5171,1.3391,11.5251-1.0698,11.1996-11.5641-.4481-12.5099,1.4575,1.2864-11.8096-9.6269,3.5939-9.6046,1.5748-11.5933-2.1411-9.8415-6.0929-7.2201-8.8898-1.6071-11.3342,1.1408-11.8824,7.4102-9.6191,11.1993-4.5767,11.9512-1.7149,17.833,4.4156-.5178-11.6138-3.4335-8.7567-8.41-4.4391-8.3846,4.7279-2.9836,10.009-12.2466.1088-12.0821-.5498,1.0365-11.5239,4.6013-10.3114,8.2971-7.644,10.4437-4.1881,11.1748.3557,10.9233.906,10.5437,3.1863,8.1057,7.4669,5.4603,9.7542.2008,11.186Zm-23.0926,34.1274l-4.8697-7.2115-8.5674-3.0132-9.0134,2.005-4.2435,8.2197,4.8694,7.2879,8.3875,3.2456,9.5006-1.8274,3.9364-8.7061Z"/><path class="cls-1" d="m364.2245,74.2624l-.4097,7.6841,2.766,12.6311,11.9886,4.8068,10.546-4.6967,3.6922-10.6907,11.753-.1795,11.5686.6917-2.4047,10.7355-3.2317,11.6031-9.1,7.9543-11.2038,3.8441-11.7642,1.7987-11.9189-1.9959-10.7831-5.0229-8.2453-8.4136-6.4783-10.3615-.6337-12.2723.5173-13.1038-.012-13.1038,1.5603-11.8993,5.1404-10.6724,7.98-8.7316,10.6374-5.9821,12.2359-.8905,11.784,1.9246,11.2028,3.9891,8.7084,8.1865,4.4902,11.0094,1.5735,11.7704-.3718,9.6477,1.2187,10.4471-13.6565-1.1824-13.0621.4569-13.0696.3347-13.0179-.3168Zm.0522-19.2431l-.146,1.937,14.2946.5991,14.3778-.3747-.1354-3.6013-3.1019-11.3991-10.9965-4.1515-11.914,4.4196-2.3787,12.5709Z"/><path class="cls-1" d="m503.3663,27.0522l-2.2599,11.5788-3.4045,11.6207-3.5466,11.5788-2.5369,11.8508-3.7183,11.5407-3.1203,11.6959-2.4234,11.89-3.239,11.9538-10.4015-1.0206-10.0821,1.554-10.3522-.5961-2.7788-12.025-3.6514-11.5589-2.5258-11.8562-3.8566-11.5032-2.9844-11.741-2.8897-11.7624-3.262-11.6713-3.3091-12.144,12.4963-.4536,12.2475.5376,1.693,12.4172,2.8063,11.946,3.6001,11.7722,3.1973,11.8586,2.4797,12.0284,2.1288,11.7432,2.0828-11.7343,3.1451-11.8655,1.9574-12.1341,4.3668-11.5942,1.0203-12.3472,3.2079-12.0635,12.2355-.6167,11.6777,1.1212Z"/><path class="cls-1" d="m534.7314,75.0111l-.8584,6.9354,3.9938,11.7092,10.764,5.3302,10.4932-4.3407,3.7584-10.6143,11.7396-1.2391,11.9214.7714-1.9631,11.8961-3.9705,11.4253-9.3388,7.6305-10.9469,4.4591-11.8378.9796-11.8733-1.681-11.6844-3.5766-7.6137-9.5327-5.0601-10.8218-1.2586-11.963-.4149-13.1038.6682-13.1038,1.208-11.9083,4.142-11.3595,9.2653-7.6617,10.4946-5.9353,12.1269-.3584,11.7824.9784,10.6711,4.8314,8.5703,7.8117,6.0074,10.3111.6961,11.9947-.2129,9.6477.3739,9.4753-12.939-.5972-13.0621-.0935-13.1029-.1087-12.5392,1.8123Zm.478-19.9918l-1.0175,1.9402,14.295-.9369,14.2952.7683-.1205-3.2115-3.0065-11.4228-11.0242-3.1022-11.108,4.0021-2.3134,11.9629Z"/><path class="cls-1" d="m651.0797,27.4774l1.1073,11.2702-1.0204,11.178-4.9059-.707-11.3663,3.9254-7.7966,8.1585-2.9896,11.4283.0712,13.0019.3587,13.0108-.7248,12.6285-11.5355.3317-11.5175-.393-1.0422-11.2542.6085-11.6981.1702-11.6943.2824-11.6973-1.301-11.7014,1.7325-11.6977-.696-11.7057-.5337-12.0581,12.2968.3134,12.2036-.1429-.9169,16.8596,9.8269-5.3674,10.2775-1.7624,7.4108-.2267Z"/><path class="cls-1" d="m660.41,87.0587l11.6266-.4337,11.9868-.5934,3.5045,9.8154,9.2768,3.2345,12.0811-9.071-5.5139-8.5227-10.3412-1.7758-11.6891-3.2386-11.3947-4.5303-6.5898-10.3875-.8206-12.0085,1.6698-12.5955,6.8077-10.998,11.5779-5.8839,12.7723-2.736,13.2829,2.3201,12.1239,6.0805,6.9442,11.6793,1.3215,12.5297-11.569.5702-11.9081.2728-2.7094-8.2931-7.3424-4.7605-11.2769,10.8066,4.6807,7.9338,8.9863,1.8441,12.298,2.7203,11.5982,4.7862,8.2563,9.6442.551,12.6706-.7879,13.3352-8.6056,10.176-11.5002,5.9793-12.903,2.6836-11.5886-.0493-10.0318-5.7322-9.2727-6.5041-5.0032-10.4156-.4983-10.5526Z"/><path class="cls-1" d="m860.4535,60.491l-.0948,11.9762.5691,11.9804.9403,11.9766-.8159,11.9848-.2823,11.3678-11.2569.8949-11.7439-.4172-1.002-11.405,1.2481-11.5484-1.4758-11.5447,1.1876-11.5526-.7505-11.5526-2.0708-9.1105-8.2164-4.1223-9.6781,3.0648-1.8898,10.0239.796,12.3105-1.545,12.3066,1.2745,12.315-1.4084,11.5561-11.0926,1.8207-12.0765-.871.6269-12.4653-1.4875-12.2706.7634-12.279-.368-12.279-1.3835-9.6004-8.8986-2.9164-8.323,3.4127-3.5543,8.9601-.0522,12.3105-.1695,12.3066.0539,12.315.3263,12.1215-11.7523.6454-11.1833-1.237.2931-10.9127-1.7381-11.6981.7095-11.6943.1239-11.6973.8885-11.7014-.3093-11.6977-.813-11.7057.2611-11.5178,11.7676.1612,12.4551-.7937-.8196,14.1339,16.2995-3.9962,12.3959,2.1865,10.7754,6.8729,10.866-6.5765,12.1863-2.7638,12.239,2.4183,10.0547,6.958,5.518,11.059,1.6321,12.4873Z"/><path class="cls-1" d="m946.3793,51.2752l-.0676,11.5138,1.2713,11.5168-1.1098,11.5208.5855,11.5171-.6783,11.5251.09,11.0526-11.4215-.1961-11.3939.141-.8674-10.3099-8.7839,2.3143-9.4099,2.2651-11.5008-2.1401-10.38-5.2585-6.0775-9.7307-1.9884-11.0277,1.016-11.7997,7.426-9.4235,10.9162-5.1679,12.028-.5362,17.5769,3.4095-1.0382-11.4734-2.3895-8.9923-8.6776-2.8511-9.015,2.9217-2.8745,9.0108-11.7252,1.6134-12.1058-.5338.9297-11.6278,5.5617-9.7153,8.0207-7.2934,10.1731-3.7398,10.8917-1.2722,11.0604.5091,10.5089,3.6721,8.3048,7.4251,4.6632,10.1039.4806,11.0571Zm-22.6609,34.1274l-4.2353-8.5731-9.4177-.8522-9.0619,1.1335-3.48,8.2918,3.4283,8.369,9.1137,2.3693,9.445-2.1213,4.2079-8.6171Z"/><path class="cls-1" d="m1033.9748,60.491l.2932,11.9762-1.1699,11.9804.2232,11.9766,1.35,11.9848-1.3761,11.5243-11.4153.6587-11.3821-.7104.1928-11.0321-.5926-11.5484-.0595-11.5447-.6393-11.5526,1.1106-11.5526-3.6839-9.0696-8.3454-3.8199-9.1136,3.3741-3.2341,9.5154-.7229,12.2745.6534,12.2706.2037,12.279-.0692,12.0969-11.7645-.5134-12.4967,1.2524-.4161-12.2547,1.6982-11.6981-1.4655-11.6943,1.3478-11.6973.2282-11.7014-1.8599-11.6977.2736-11.7057.5578-11.8905,12.1326.4733,11.9277-.2674-.2732,13.663,17.1448-4.5874,12.517,2.094,10.9335,6.6613,6.0881,11.5276,1.2037,12.9553Z"/><path class="cls-1" d="m1119.6754,64.8113l1.4335,11.1125-1.2106,11.1163.3783,11.1128.1827,11.1204.7141,11.7428-12.4624-.632-11.676-.1718.3246-13.1729-.1871-13.3501-.2233-13.3592-.0385-13.3592-3.391-8.9632-8.2081-4.9091-9.8856,3.6981-1.791,10.1742-.5475,12.2745-.468,12.2706,1.2154,12.279-.5187,12.3766-12.052-.7942-11.7763.5252.2222-12.0664.0517-12.238-.6496-12.234-.1719-12.2372.8102-12.2415.3992-12.2376-.934-12.246.4441-11.907,11.6043-.6596,11.6815.5014.1677,17.7108,16.9501-4.6338,12.7103,1.7445,10.8179,7.1043,6.2009,11.5408-.1172,13.0078Z"/></g></svg>