<?xml version="1.0" encoding="UTF-8"?><svg id="Layer_2" xmlns="http://www.w3.org/2000/svg" width="1121.7579" height="150.6336" viewBox="0 0 1121.7579 150.6336"><defs><style>.cls-1{fill:#231f20;stroke-width:0px;}</style></defs><g id="Layer_2-2"><path class="cls-1" d="m1.5604,129.6816l2.4984-.7017,6.1096-1.1118,4.5022-4.526-.564-6.4038.5153-7.0152,1.4374-7.0163-2.6158-7.0116,1.3969-7.0146-.9885-7.0146,1.7449-7.0147.4332-7.0166-2.6514-7.0128,1.3186-7.0189,1.2438-7.0237-1.2431-7.206,8.1249-.075,7.9696-.8781,8.8589.1214.1405,8.0031-1.3823,6.9901,1.0418,6.9854-1.6146,6.9885-.3359,6.9884.9634,6.9886-.0788,6.9904.3255,6.9866,1.5166,6.9927-1.0445,6.9975-.1236,6.9975-.9391,7.5459-1.3242,7.4012-2.2021,7.1972-4.312,6.3762-6.9176,3.403-7.429,1.53-7.5563.383-7.4758-.5127-.9032-6.537,1.324-7.1101.2363-6.6452ZM11.8053,16.7161l.6765-8.0213,6.3239-5.3109,8.1486-.9579,8.4839.2119,6.1672,5.9438.7022,8.1344.3069,8.7533-7.4736,4.6503-8.1868,2.5834-7.8592-3.2979-5.566-5.3151-1.7238-7.374Z"/><path class="cls-1" d="m124.9619,26.8539l.4725,7.1396-1.3237,7.1979.4557,7.1988-.0125,7.1999.6014,7.1951.5133,7.1982-.4584,7.1982.0485,7.1983-.1321,7.2002.3294,7.1963.0478,7.2025-1.2765,7.2075,1.0373,7.4815-8.1658-.6138-7.9217.87-8.1848-.2222,1.0702-7.0758-.5673-6.883-8.268,2.9509-8.2433,2.5682-7.4954-.4367-7.0898-2.5291-5.8854-4.5332-4.9368-5.4406-3.4157-6.5894-1.8227-7.2324.7614-7.4418-1.7037-7.32.6916-7.3201.2906-7.322-.7198-7.3245.5221-7.3222.5166-7.3272.1236-6.7746,7.4557-.1782,7.9696-.4911,7.9773.1082-.4407,7.1846.7402,7.1762.5135,7.178-.8458,7.1741-.6107,7.1804,1.184,7.1853-.5333,7.1853.8629,6.529,3.8084,5.4112,6.5463.3625,6.4383-.6436,4.1165-5.0508,1.9777-6.4648-.3259-7.1965-.7316-7.1967,1.2463-7.1985-1.528-7.1946-.3144-7.2009.4705-7.2058-.0949-7.8135,8.4694,1.4493,7.921-.6512,7.8695-.1323Z"/><path class="cls-1" d="m140.4644.7607l8.0663-.7607,7.9696.4729,7.8515.5372.6219,6.8948.2763,7.027-.1048,7.029-1.0768,7.03,1.3097,7.029-2.0346,7.0291.8987,7.0299-.9092,7.031,1.7928,7.0263.1263,7.0294-1.3867,7.0294.1411,7.0295.9101,7.0313-1.3712,7.0275-.266,7.0336,1.2378,7.0384-.8101,6.1753-7.2013.5768-7.9696-.4019-8.0274.7538-.3312-7.0943.333-7.027.2941-7.029.8099-7.03-1.4578-7.029.0334-7.0291,1.2959-7.0299-1.5989-7.031,1.65-7.0263-1.5262-7.0294,1.6345-7.0294-.8531-7.0295-.0124-7.0313.4305-7.0275-1.5566-7.0336,1.9312-7.0458-1.1206-7.1467Z"/><path class="cls-1" d="m176.9763,16.7161l1.7059-8.1538,6.2338-5.9108,8.4972-1.5811,8.3475,1.9122,7.0381,5.1744,2.0644,8.559-2.1005,8.563-6.9183,5.401-8.4312.3589-8.2419-.7911-5.8648-5.7309-2.3302-7.8009Zm4.5684,23.1293l7.8814-.4245,7.9696-.5121,8.5181.2505-.0382,7.9257.618,7.3304-.2421,7.3255.1936,7.3287-.4274,7.3287-1.3019,7.3288.8069,7.3307-.5558,7.3332.5515,7.3309.7159,7.336-.5979,7.6301-8.2351-.4712-7.9696.6766-8.4932.0698-.146-7.8986,1.0677-7.3304-1.2987-7.3255,2.0174-7.3287-.8911-7.3287.9016-7.3288-1.7777-7.3307-.1253-7.3332,1.375-7.3309-.1399-7.3334-.3768-7.2488Z"/><path class="cls-1" d="m292.0064,51.2752l1.3219,6.9114-1.1334,6.9068-.2236,6.9098-.2164,6.9098,1.3391,6.9099-1.2075,6.9117-.3201,6.9079,1.7035,6.9139-1.6111,6.9187.7204,6.9636-7.9556.7656-7.9217-.4813-7.6713-.6919-.2316-5.1091.6281-5.7336-6.387,3.2623-6.3468,1.4678-6.4883-.104-7.8352-.3308-6.9709-3.5914-6.795-3.4882-5.7477-5.3366-1.9709-7.5812-2.4054-7.5077.5967-6.9954,2.3223-6.6928,4.5893-5.3566,5.3705-4.5159,6.5072-2.6328,6.86-1.1929,6.9186-.6155,8.6512,2.1707,8.9112,2.3209-.5658-5.8653.2204-5.6157-1.9135-6.0866-3.8072-4.5277-6.0247-2.2771-6.3152,2.1052-3.4183,5.134-1.8787,6.5284-8.0151-.1874-7.9696-.5445-8.1009.9982,1.6081-7.1787.3191-7.071,3.5333-6.077,4.7996-4.9125,5.5193-3.8488,5.8103-4.128,6.9827-.9678,6.9818-.2496,6.877,1.1993,6.7751,1.2003,6.6979,1.904,5.7296,4.0078,3.9524,5.6793,2.9628,6.1156,1.3513,6.6704.8878,6.8016Zm-23.0926,34.1274l-2.8392-5.355-4.3365-4.0907-6.2614-1.0026-6.2314.6602-4.158,4.4276-2.7359,5.3606,1.4921,6.2475,5.8739,2.1014,5.7593,2.4123,6.2035-1.5116,4.5381-3.7899,2.6955-5.4597Z"/><path class="cls-1" d="m364.5615,74.2446l-.4321,7.7019.0643,6.5112,2.9923,5.9042,5.4823,3.3825,6.2157,1.3963,7.6464-1.8245,5.6565-5.6883,1.1155-7.1116,7.6092-1.6669,7.9217.7441,7.7447.6054-.6488,6.9104-2.3837,7.0651-3.2733,6.5704-4.5525,5.649-4.8975,5.8878-7.2949,2.1881-7.3839,1.0125-7.4041.4512-7.4907-.6668-7.1507-2.1259-6.9704-2.651-6.7255-3.776-4.2884-6.4134-2.6209-7.1137-2.315-7.2153-.5738-7.5924.5115-6.5454-.1339-6.5511.3718-6.5556-1.6222-6.5556,1.9172-7.5212,1.3311-7.4627,2.9242-7.069,4.3198-6.466,6.5708-4.1465,7.1952-2.4138,7.1696-2.4031,7.5804-.8747,7.3781,1.5182,7.4558.7667,6.8298,3.1031,5.7102,4.7657,4.6505,5.7025,3.3617,6.5773,2.5179,7.094.5938,7.5336.0415,6.4289.0084,6.4333-.1689,6.8547-7.827-.0017-7.4639-.7533-7.4659-.055-7.4684.9477-7.4661-1.2318-7.4724.4288-7.393.3179Zm.0298-19.2253l-.1839,1.9307,7.1977.6054,7.1268-.3619,7.1317-.6031,7.2669.3319.0076-3.3429-.6569-8.1228-5.4957-6.3268-8.1015-.1329-6.1791.3035-5.4656,3.3513-2.0572,6.0907-.5907,6.2768Z"/><path class="cls-1" d="m503.6947,27.0695l-1.076,7.0615-2.2068,7.1205-2.3501,7.0833-1.3399,7.3533-2.5188,7.0344-1.9227,7.1964-1.2237,7.3824-1.8905,7.2051-3.0224,6.9058-.4136,7.596-2.3941,7.0755-2.3947,7.0807-1.5617,7.5899-7.8331-.5336-7.5566.7509-7.5618-.1532-7.6672-.2856-2.1183-7.2572-2.203-7.124-2.1388-7.1421-1.4848-7.3184-.8216-7.4907-2.0447-7.1667-2.8297-6.9565-2.4317-7.0632-1.72-7.2557-1.7225-7.2509-2.1493-7.1433-1.4525-7.3351-2.4626-7.7642,8.6415,1.4528,8.0178-1.685,8.2091.5068,2.2651,7.2521,1.2527,7.2608,1.8344,7.1335.0788,7.5275,3.1005,6.8494.6745,7.3959,2.3421,7.0175.7987,7.3705,2.273,7.0448,1.3171,7.0985,1.5779-7.0286,1.1075-7.2891,1.8242-7.133,2.1382-7.0631,1.7844-7.142,1.995-7.0971,1.4513-7.2139,1.4222-7.227,1.5675-7.1998,1.238-7.1358,7.889-.7636,8.0228.3124,7.6898.5603Z"/><path class="cls-1" d="m535.2512,74.8482l-1.0636,7.0983,1.5617,6.1698,1.8164,6.006,5.1885,3.5589,6.1912,1.4959,7.1548-2.761,5.2088-5.1583,1.7729-7.5146,7.8912-.9606,7.9217,1.1513,7.8523-.0537-1.2397,7.1424-2.0724,7.0924-1.7861,7.4143-5.6777,5.0565-5.6981,4.6238-6.8496,2.7151-7.1733,1.9173-7.4493-.2263-7.4961-.3137-7.5497-.9829-6.332-4.2148-6.6524-3.6981-3.7816-6.6011-3.4288-6.621-1.3299-7.3616-.7433-7.444-1.1855-6.5454.7727-6.5511.2129-6.5556-.2869-6.5556,1.0915-7.464,1.8351-7.216,3.2179-6.6555,4.5239-5.7992,4.8639-6.0617,7.445-2.0957,7.2535-2.1182,7.5697-.2912,7.3398,1.1439,7.6457.0056,6.9533,3.0971,6.3215,4.3119,4.9144,5.9118,2.0755,7.3559,1.4274,7.2324,1.4963,7.3471.8188,6.4289-.1219,6.4333-.4205,6.9376-7.8985-.6353-7.4639-.6949-7.4659,1.3752-7.4684-.1209-7.4661-1.0444-7.4734.5708-6.7639.7228Zm.2728-19.8289l-1.0558,1.9338,7.1984-.9305,7.1268.7725,7.1317-.2725,7.2812.4332-1.0322-3.3765-.5656-7.74-4.9598-5.9895-7.7032-.7863-6.3035-.0801-5.0728,3.8708-2.804,5.7772.7588,6.3878Z"/><path class="cls-1" d="m651.4062,27.5238l1.0954,7.4284-1.0644,7.5856-.2742,7.0655-4.5877,1.2336-6.9864.7857-6.845,1.9823-4.9281,5.2423-2.2605,6.781-1.5764,7.1025.5145,7.8019-.5701,7.8046,1.2287,7.8021-.6085,7.8075-.119,7.6856-7.8446-.3312-7.9696,1.301-7.3767-1.5043-.4043-6.5413-.6818-7.1979.4542-7.1988-.2718-7.1999.9861-7.1951.1864-7.1982.0467-7.1982-.1581-7.1983-1.3836-7.2002,1.449-7.1963-1.1848-7.2025.7656-7.2075.199-6.5494,7.3686-.1074,7.9696-.6013,7.5558.4489,1.2914,7.8815-.6473,8.2212,5.5847-4.064,6.6256-2.3555,6.9988-2.3421,7.4227,1.6283Z"/><path class="cls-1" d="m660.6978,87.0676l7.6658-.4426,7.9696-.5999,8.241-.6686,1.6672,7.589,3.5096,6.2648,7.3682.9399,7.9006-2.7692,3.864-7.3705-2.9353-5.8999-5.7285-3.2427-6.7248-2.2283-6.8914-.6373-6.8852-1.2715-6.056-3.4957-5.9787-3.8031-3.4868-6.1966-2.6475-6.6055-.0356-7.0829,1.9952-7.2004,1.6979-7.104,3.7867-6.3385,5.157-5.4871,7.3541-1.822,6.9159-2.0976,7.2579-.5986,7.5402.2323,7.2434,2.0201,6.9702,2.9315,6.0617,4.78,2.5675,7.2831,3.6648,6.8323-.2464,7.1847-7.7343-.3754-7.9217.8308-8.1972,1.0148.3598-7.1499-4.5497-4.1525-5.6147-1.0508-7.7709,1.7105-2.8923,7.5491,2.34,5.1707,5.1012,2.1972,5.6379,2.2248,7.1725,1.0089,6.7878,2.5005,7.3087,1.4228,5.4305,5.0341,3.5326,6.2235,2.3897,6.6682.594,7.1484-1.3415,7.3906-1.5776,7.3537-4.2445,6.2303-5.3977,5.3138-6.5573,4.0784-7.5803,1.4796-7.6358-.2872-7.0308-.7081-7.0665-.6423-6.9627-1.8786-5.4315-4.7261-4.8585-5.1521-2.8693-6.4907-2.4258-6.7746.2237-6.2575Z"/><path class="cls-1" d="m860.7681,60.491l-.0948,7.4849.5691,7.4848.9403,7.485-.8159,7.4869-.5363,7.4895,1.1544,7.4871-.4722,7.4923.79,8.1216-8.5116-1.0109-7.9214,1.4758-7.8585-1.1632-.72-7.1459.2004-7.2149.4419-7.2151,1.0659-7.2169-1.1473-7.213-.796-7.2193,1.545-7.2242-1.2745-7.2242.7525-6.8012-5.4047-3.9404-5.6706-2.2316-6.5859.9441-2.97,5.7781-1.8138,6.107.368,7.0321-1.0051,7.0322,1.0736,7.034-.1195,7.0302-.9691,7.0363-.0522,7.0411.0249,6.6081-7.5308-.0926-7.9214.2478-8.2209.6162,1.398-7.3499-.037-7.0116-1.7381-7.0134.7095-7.0096.1239-7.0157.8885-7.0206-.3093-7.0206-1.6953-6.4468-3.5727-5.4341-6.4123-1.7158-5.9831,2.5133-4.7752,4.3274-1.8148,6.612.0301,7.0321.8461,7.0322-.9298,7.034.3345,7.0302-.3383,7.0363.1298,7.0411.2947,6.2647-7.2777-.3592-7.9696.6096-7.3564-.153-.6259-6.5188.9492-7.1979.2198-7.1988-1.3591-7.1999.3873-7.1951-.3025-7.1982.9467-7.1982-1.6828-7.1983-.0466-7.2002,1.246-7.1963.2285-7.2025-1.3498-7.2075.5491-7.4582,8.1911.8107,7.9696-1.3588,8.6206.0322-.2422,7.5345-.02,6.5828,7.0407-4.0952,8.5538-.5425,6.557.1359,6.05,2.5073,5.358,3.4244,5.1888,4.4281,4.623-5.2161,5.673-3.2386,6.3695-1.3587,6.4044-1.7715,7.5437.5364,7.0133,2.8738,6.4136,3.938,4.4291,6.0484,3.9311,6.4487-.2258,7.6285.3387,7.2375Z"/><path class="cls-1" d="m946.6939,51.2752l-.0676,6.9114,1.2713,6.9068-1.1098,6.9098.5855,6.9098-.6783,6.9099-.11,6.9117-.0103,6.9079-.0487,6.9139,1.1131,6.9187-1.0214,6.2029-7.2907,1.2253-7.9217-.4942-8.0669.1947.925-5.6818.1593-5.8519-6.7394,3.1818-6.3259,1.3224-6.449.5624-7.6723-1.5033-7.253-2.4746-7.1733-3.1586-4.9497-6.125-3.5764-7.0336-.3237-7.863,1.3285-6.6729.767-7.0398,4.5847-5.3836,5.3566-4.5824,6.8553-1.5535,6.7079-1.0954,6.7879-.285,8.7013.5184,8.2753,2.2413-.1861-5.5226.0529-5.6157-1.0669-6.2826-3.6869-5.4496-6.6179-.2027-6.7605.3653-2.9111,5.9382-1.7349,7.1393-8.2207-.3497-7.9696.2678-8.1342-.1762,1.1437-7.3739,1.0723-6.8952,2.6022-6.5743,5.5804-4.3927,5.541-3.724,6.1499-2.7153,6.5769-2.0906,6.921.2612,6.9845-.7557,6.5272,2.6264,6.7852,1.501,5.9008,3.7702,4.2697,5.5284,2.7231,6.3318,1.713,6.6575.1144,6.8832Zm-22.6609,34.1274l-1.7612-6.3052-5.8566-2.3738-6.0352-1.8562-6.0086,1.4264-5.4413,2.9922-1.8802,6.1165,1.7824,6.1866,5.275,3.7276,6.2727-.2299,6.4895.5344,4.4948-4.5808,2.6687-5.6379Z"/><path class="cls-1" d="m1034.2894,60.491l.2932,7.4849-1.1699,7.4848.2232,7.485,1.35,7.4869-1.5657,7.4895.8523,7.4871-.9125,7.4923.2396,6.9907-7.4416.4036-7.9217.0595-8.3263.4827.9144-7.6592-1.2971-7.2149.4292-7.2151.2759-7.2169.3342-7.213.7229-7.2193-.6534-7.2242-.2037-7.2242-.8479-6.6954-3.978-5.6548-6.8115-.1182-6.0882,1.5869-5.5211,3.9324.2421,6.949-1.3478,7.0115-.2282,7.0116,1.8599,7.0134-.2736,7.0096-.4801,7.0157-.5471,7.0206.2674,6.9966-7.943-.3082-7.9696-.1249-7.6702.1257-.7046-6.8663-.2094-7.1979,1.4857-7.1988-.7334-7.1999-.3885-7.1951-.1113-7.1982.7707-7.1982-.7268-7.1983.2097-7.2002-.6859-7.1963-.0064-7.2025-.0179-7.2075,1.3621-6.6071,7.4208-.3264,7.9696.1521,8.4834-1.0311.1939,7.3729.0331,6.4012,7.5601-2.5259,8.5467-1.5021,7.1966.9502,6.9777,1.845,6.4139,3.5123,4.4274,5.8356,4.2252,6.2216,1.5974,7.355-.0957,7.4742Z"/><path class="cls-1" d="m1119.99,64.8113l1.4335,6.945-1.2106,6.945.3783,6.9451.1827,6.9469.984,6.9432-.8621,6.9492-.2633,6.954-.0759,6.5569-7.5675.0556-7.9217.2233-7.8665.0608-1.0162-7.571,1.5858-7.6285.308-7.6304-1.3518-7.6331.5475-7.6307.468-7.6359-1.2154-7.6359-.4887-6.5606-3.5997-5.7904-6.812-1.1417-6.7554,1.4276-4.588,5.2261-.552,6.8389.1719,7.0115-.8102,7.0116-.3992,7.0134.934,7.0096-.5821,7.0157.8059,7.0206-.5356,6.7767-7.7492.1352-7.9696-.1897-8.0337.3714-.4427-7.0663-.3054-6.9922.747-6.9924-.6925-6.9932.1373-6.9943,1.3085-6.9896-.6584-6.9926.0617-6.9926-.5082-6.9927-.4954-6.9945-.0168-6.9907,1.3857-6.9968-.8823-7.0016.8309-6.5408,7.559-1.4552,7.9696.3597,7.7176.8597-.1898,8.7028-.1867,9.1475,8.9781-2.9478,8.4981-1.7649,7.2423.8054,6.7366,2.5146,6.1714,3.584,5.3772,5.0171,2.6077,6.9076,1.181,7.199.2958,7.2649Z"/></g></svg>