<?xml version="1.0" encoding="UTF-8"?><svg id="Layer_2" xmlns="http://www.w3.org/2000/svg" width="447.942" height="282.0901" viewBox="0 0 447.942 282.0901"><defs><style>.cls-1{fill:#fff;}.cls-1,.cls-2{stroke:#231f20;stroke-miterlimit:10;stroke-width:11px;}.cls-3,.cls-4,.cls-5{stroke-width:0px;}.cls-4,.cls-2{fill:#42b658;}.cls-5{fill:#231f20;}</style></defs><path class="cls-1" d="m348.7222,34.2652c2.5977-11.2969,9.9273-22.7775,22.3556-24.1903,7.4416-.846,15.22,2.3323,19.9398,8.1474,9.6319,11.8671,3.18,25.6013-5.238,35.8689"/><path class="cls-2" d="m288.3269,46.2885c-2.3789,3.966-4.9788,7.7225-8.5579,10.6137-11.9161,9.6257-29.2572,6.0298-44.2432,2.8569-36.844-7.8008-76.1043-9.7853-111.4286,3.2732-12.5435,4.637-24.7264,11.1809-38.0671,12.1127-18.8114,1.3139-37.0129-9.1271-49.1109-23.5921-11.4841-13.7311-14.6503-30.077-22.4021-45.0677-.678-1.3111-2.5835-1.318-3.2387.0046-12.4259,25.0826-3.0932,62.9129,11.7455,84.2897,17.8438,25.706,49.2348,41.4011,80.5058,40.2519,4.4152-.1623,9.5993-.3168,12.3351,3.1525,1.7664,2.24,1.8871,5.32,1.9308,8.1723.6188,40.3906,1.2377,80.7811,1.8565,121.1717.0264,1.7235.1298,3.6369,1.3568,4.8476.9314.919,2.297,1.2057,3.5822,1.4516,6.8733,1.315,13.7466,2.6299,20.6199,3.9449,12.3284,2.3586,25.34,4.6759,37.1946.55,11.8546-4.1259,21.5856-17.1848,17.4466-29.0348-4.0764-11.6709-18.2479-15.829-30.4983-17.4896-2.9389-.3984-6.1331-.8692-8.1789-3.0165-1.9392-2.0353-2.334-5.0501-2.613-7.8475-1.9687-19.7341-3.0115-39.5606-3.1238-59.3923-.0104-1.841.0031-3.7557.8057-5.4125,2.3717-4.8959,9.3487-4.4795,14.7114-3.5649,27.617,4.7103,56.3993,2.4042,82.9208-6.6179,1.2023-.409,2.4424.4912,2.4062,1.7607l-3.1538,110.8274c-.053,1.862-.0578,3.8842,1.0627,5.3723.9727,1.2918,2.5881,1.8961,4.123,2.4048,9.3171,3.0875,19.0187,5.0128,28.8087,5.7171,9.0939.6543,19.0427-.0311,25.9653-5.9655,10.3857-8.904,11.4751-26.8331.5621-35.741-4.023-3.2838-9.2657-5.1186-14.4629-5.0224-1.5127.028-7.052.8201-10.4301,2.2395-1.2231.5139-2.5548-.4414-2.4917-1.7665l3.8732-81.2782c.5448-11.4331,1.9251-24.4842,11.2276-31.1533,9.3357-6.6929,22.1043-3.7724,33.4133-1.7585,20.1736,3.5925,43.181,4.2661,63.0067-1.3847,5.8169-1.658,11.7202-4.1885,15.3952-8.9926,5.3441-6.986,4.4802-17.3525-.2391-24.7748-4.7194-7.4223-12.5604-12.3179-20.6447-15.7829-8.0844-3.465-16.6441-5.7488-24.6564-9.3774-13.0146-5.894-22.6914-18.3208-35.3106-23.827-10.8451-4.7322-25.4845-1.2606-33.5143,7.0456-4.3833,4.5343-7.2289,10.3638-10.4896,15.7999Z"/><path class="cls-1" d="m345.8369,36.3748c-7.5807-5.4232-17.8001-5.9707-26.0686-.0989-7.2143,5.1232-11.7501,14.1766-11.3596,23.0456.5028,11.42,11.5153,15.3891,21.2855,16.6369,8.6693,1.1072,17.7269-.7308,22.7477-8.5218,4.9023-7.6072,4.6971-16.5039-.1306-24.1609-1.7614-2.7936-3.9744-5.1123-6.4743-6.9008Z"/><path class="cls-3" d="m334.0019,54.1806c.1861-1.6083,1.5624-6.1888-1.785-5.4671-4.0207.8668-5.0082,7.0678-4.905,10.4085.0393,1.2739.2628,2.6153,1.082,3.5917,1.3306,1.5862,3.9525,1.6348,5.6277.418,1.0739-.78,1.8043-1.9564,2.2889-3.1921.9673-2.4666,1.0701-5.2617.7276-7.8664-.1612-1.226-.8557-4.4469-2.6629-2.8836-.9288.8036-1.6843,2.6153-2.2017,3.7181-.7227,1.5405-1.2511,3.1745-1.526,4.8551-.08.4889-.1374.9991.0085,1.4725s.5455.9017,1.04.9324c.7688.0477,1.2668-.8029,1.4441-1.5525.1729-.7308.2245-1.4901.152-2.2375"/><path class="cls-5" d="m335.8769,54.1806c-.0887.7158-.0097.1022.0186-.0649.0323-.1902.0673-.3799.1003-.5699.0956-.5502.181-1.1029.2448-1.6577.1036-.8994.1318-1.8632-.1473-2.7362-.8872-2.7747-4.0995-2.8521-6.2401-1.4677-2.084,1.3478-3.2255,3.7086-3.8169,6.0484-.5849,2.314-.8322,4.8809-.4039,7.2429.6233,3.4373,3.7249,5.4145,7.108,4.726,3.3095-.6735,5.1985-3.9223,5.9059-6.9785.6365-2.7501.7134-5.9957-.139-8.7185-.3815-1.2185-1.054-2.5345-2.3571-2.9559-1.5026-.4859-2.84.3756-3.7365,1.5331-.9426,1.2171-1.5662,2.6722-2.1711,4.0793-.7734,1.7991-1.5228,3.8604-1.5505,5.8441-.0318,2.2798,2.1917,4.4673,4.4753,3.1648,1.7776-1.0139,2.1451-3.4384,1.9997-5.292-.0791-1.0096-.8051-1.875-1.875-1.875-.9532,0-1.9546.8599-1.875,1.875.0392.4997.0581,1.0104-.0319,1.4945-.026.1396-.0585.296-.1041.4335-.0085.0255-.1343.32-.0424.1094-.0372.0852-.1494.1465-.0775.1309.015-.0328.0381-.0586.0693-.0773.2006-.1823.4616-.2285.7832-.1386.0017.0005.5703.3794.4414.4141-.026.007.0029-.5087.0004-.4831.0601-.6232.246-1.2672.4135-1.8684.3011-1.0808.7197-2.0968,1.1885-3.1127.2022-.4382.4067-.8756.6317-1.3027.1153-.219.2347-.4361.3635-.6475.0714-.1172.147-.231.2214-.3464.0399-.0618.184-.2412.0566-.0875.0777-.0937.1648-.1741.2446-.265.0128-.0146.199-.2211.0705-.0709-.119.1391.2479-.0487-.0289.0136-.1263.0284-.2362.0742-.373.0722-.2519-.0039-.3462-.0165-.6519-.2782.1418.1214.0588-.0073.0112-.0146-.0941-.1309-.0938-.1278.0009.0091l.0678.1115c.0361.0568.0596.1218.0952.1786.1371.2187-.1109-.3118-.019-.0619.0585.159.1156.318.1645.4804.0996.3303.1768.6674.2389,1.0066.0241.1316.0459.2637.0648.3961-.0538-.3757.0022.0496.0071.1061.0149.1703.0346.3399.0488.5103.0536.6432.0771,1.2889.066,1.9342-.0202,1.1752-.1702,2.3182-.5039,3.4469-.2712.9172-.7002,1.9274-1.3214,2.6003-.3404.3687-.5193.5071-.9323.75-.1542.0907-.781.2664-.9197.2735-.2271.0117-.452.0141-.6791-.0036-.2251-.0176-.0193-.0031.0212.0045-.1252-.0235-.2473-.065-.3719-.0884-.2362-.0442-.5143-.1994-.7154-.4077-.5328-.552-.6791-1.4325-.7201-2.2523-.038-.7599-.0113-1.5244.0546-2.282.0165-.1898.0391-.3788.0581-.5683.0294-.2936-.0456.2971-.0023.0015.0123-.0837.0244-.1674.0376-.2509.0714-.4531.1595-.9038.267-1.3498.0946-.3926.204-.782.3313-1.1653.0631-.19.1328-.3773.203-.5648.076-.2029-.0157.0248-.0285.0549.0544-.1288.1139-.2558.1748-.3817.1675-.3458.3599-.6732.5654-.9973.2373-.3743-.0725.0393.1326-.193.1549-.1754.3149-.3387.4783-.5059.0534-.0547.1147-.1013.1709-.153-.2779.2552-.042.0256.0443-.0275.1732-.1066.3473-.2058.526-.3027.2394-.1298-.287.0887-.023.0109.1256-.037.2468-.0822.3742-.1147.0784-.02.1583-.0334.2369-.0523.2406-.0577-.3177-.0095.0281.0067.2984.014-.3447-.1267.1007.0143-.0256-.0081-.4201-.2049-.1664-.0572-.0485-.0282-.3215-.2846-.1511-.1066-.3259-.3402-.1784-.2672-.1135-.1444.1184.224-.0443-.1175-.0536-.1705.0227.1296.0777.3658.1294.4821.0725.1629-.0294-.1779-.0275-.2038-.007.0979.015.2107.0182.3103.0054.1728.0018.3456-.0064.5182-.0095.2008-.0345.3994-.0487.5996-.0036.0504-.0305.2854.0007.0174.0353-.3029-.0123.0829-.0224.1465-.1197.7548-.2636,1.5034-.3576,2.2622-.1248,1.0066.9511,1.875,1.875,1.875,1.117,0,1.7499-.8654,1.875-1.875h0Z"/><path class="cls-3" d="m374.3256,30.3854c-1.1687,1.2683-1.1414,3.4548.0588,4.6935.0865.0892.1845.1773.3062.2021.1134.0231.2302-.0124.3378-.0551,1.3132-.5203,1.9219-1.9999,2.3935-3.3314.2146-.6059.4323-1.2501.2996-1.8791-.107-.5074-.4312-.9407-.7802-1.3242-.7158-.7867-1.575-1.4426-2.5225-1.9257-.4178-.213-.8672-.3958-1.3362-.3961-.5115-.0003-1.0013.2182-1.425.5048-1.5803,1.0691-2.3472,3.0839-2.2572,4.9898.09,1.9058.931,3.7074,2.0142,5.2781.22.3191.4794.6515.8538.7519.262.0703.5402.0142.8018-.0573.8796-.2402,1.7289-.6684,2.337-1.3478.771-.8614,1.0877-2.0539,1.1005-3.2099s-.2508-2.2951-.5128-3.421c-.1052-.4521-.2162-.9173-.4872-1.2942-.6353-.8837-1.8866-.9891-2.9747-1.0131-.4968-.011-1.0026-.0208-1.4799.1174"/><path class="cls-5" d="m372.5578,28.6176c-1.682,1.9242-2.0257,4.515-.9373,6.8247.7252,1.5391,2.2299,2.6658,3.9892,2.2204,1.2726-.3222,2.2951-1.3461,3.0013-2.3996.5678-.8471.9247-1.8476,1.2573-2.8056.5013-1.4438.5481-2.984-.2425-4.3386-.6306-1.0805-1.6124-1.9212-2.5972-2.6626-.8975-.6757-1.9686-1.2886-3.0815-1.4867-2.6772-.4765-5.1413,1.4763-6.203,3.8239-.9799,2.1668-1.092,4.5847-.3554,6.8519.3603,1.1092.8681,2.1912,1.4869,3.1798.8474,1.3538,1.8765,2.5254,3.5919,2.5996,1.2095.0523,2.6259-.5479,3.5943-1.2326,1.187-.8392,1.9932-1.9164,2.4997-3.2754.4477-1.2011.5246-2.5598.3722-3.824-.1748-1.4506-.405-2.9973-1.0218-4.3349-1.2344-2.6772-4.9572-3.1303-7.5234-2.5004-1.2707.3119-2.1538,1.8155-1.7461,3.0753.4268,1.3187,1.7137,2.0803,3.0753,1.7461.635-.1559-.4824-.0548.1745-.03.1412.0053.2863-.0038.4274-.0023.2937.0031.5862.0263.8796.0339.1951.0051.3585.1212-.1617-.0341.1021.0305.2223.0366.328.0604.0308.0069.4725.1305.4695.1363l-.3061-.1246c.0932.0476.1826.1014.2682.1616-.0222.0176-.4855-.3999-.1569-.0753l-.1967-.2339c.1011.1986.1078.2034.0203.0144-.1132-.4039.0273.1573.0381.1974.0302.1125.0556.2267.0824.3399.0834.3521.1644.7052.2376,1.0595.0293.1418.0577.2838.0839.4261.0365.1981.1399.6339.0415.1919.0744.3342.0653.7382.0605,1.0789-.0017.1215-.0143.2443-.0143.3658,0,.591.0969-.3858.0118-.0264-.0635.2682-.131.532-.2028.798-.1481.5491.1937-.2992.0044-.0121-.1092.1655-.1771.4066-.3296.5402.0527-.0462.3702-.3843.0376-.0908-.0418.0368-.1948.2237-.2674.2455l.2174-.1709c-.0996.0693-.2019.1344-.3068.1955-.1053.0615-.214.1151-.322.1718-.4378.2297.0741-.0151.0922-.0367-.0791.0948-.4085.1241-.5224.1672-.3855.1458-.3844-.1884.5274.0573.6657.4682.8722.584.6196.3473-.1282-.1313-.089-.0691.1177.1865-.4023-.4171-.7055-1.0675-.9738-1.5745-.1324-.2503-.3056-.5287-.388-.8025.1581.5255.0465.0924-.0026-.0448-.0664-.1853-.1272-.3721-.1818-.5612-.082-.2839-.1383-.5711-.2019-.859-.1351-.6111.0033.3714-.0011-.0164-.0017-.154-.0233-.3087-.0263-.4632-.0049-.2552.0175-.506.0297-.7605.0176-.3677-.1293.632-.0054.0767.0371-.1662.0699-.3312.1152-.4955.0299-.1086.0628-.2169.0986-.3238l.0559-.1594c.0986-.2541.0791-.2106-.0584.1306-.045-.0726.2657-.5037.3187-.5887l.0904-.1401c.1555-.2192.1242-.1842-.0938.1051-.004-.0291.2222-.2524.2194-.2494.0756-.0801.1624-.1523.2365-.2337.3109-.3412-.4277.2608.0989-.076.1305-.0835.4492-.3722.0014-.056.0412-.0291.367-.1027.3666-.1064.0236.2102-.8139-.1128-.4562.0267.1506.0587.5679.0849.064-.0101.2503.0472.5401.2793.7542.4094.1337.0813.2653.1656.3946.2538l.1539.1075c.2219.1636.2024.1472-.0585-.0493.1491-.0148.5953.5298.6948.6302.1291.1302.2487.268.3736.4019.3404.3648-.2737-.3967.0196.0538.0762.117.1905.4277-.041-.1289.0612.2473.0594.2216-.0054-.0772l.0492-.2426c-.0607.4066-.2162.806-.355,1.1904-.0375.1039-.0754.2076-.1145.3109-.0294.0783-.0596.1562-.0908.2338-.0699.1744-.0397.1044.0906-.21.0278.1676-.3338.676-.417.8136-.0223.037-.2042.348-.2233.3401.2156-.2696.2625-.3343.1408-.1942-.0516.06-.1059.1175-.1628.1726-.3056.3427.1026-.127.1456-.0879-.0858.0611-.1749.117-.2673.1676-.3858.1847-.1747.1349.6332-.1497l1.2618.3413c.2331.2291.2644.2536.0939.0736.2246.3062.262.3503.1121.1323-.073-.1286-.14-.2869-.2205-.4095.3419.5205.0899.1907.0316-.0659-.1385-.6093-.0296.4572-.001-.0313.0041-.0694.0558-.4076.0137-.4685-.0621.4054-.0677.4729-.0168.2024.0226-.1014.0497-.2015.0811-.3005.1015-.4457-.2805.4346-.0112.0257.0489-.0913.1022-.1799.1598-.266-.241.2941-.275.3403-.1018.1387.8601-.984,1.0405-2.5804,0-3.5355-.9429-.8655-2.6164-1.0515-3.5355,0h0Z"/><path class="cls-4" d="m383.9748,79.3638c.2132.99.6579,1.9293,1.2884,2.7217.5675.7132,1.5071,1.3466,2.3401.9765.9154-.4068.9891-1.6562.9219-2.6556-.0143-.2132-.0356-.4437-.1781-.6029-.1338-.1496-.3433-.2008-.5396-.2426-.9101-.1941-1.8279-.3522-2.7505-.4738"/><path class="cls-5" d="m381.5641,80.0284c.254,1.1461.7587,2.2892,1.4685,3.2268.5377.7102,1.0518,1.285,1.822,1.7628.3402.211.7224.37,1.1028.489.1934.0605.3934.0778.594.1048.2225.0299.4377.0709.6615.0532.633-.0502,1.1384-.176,1.7039-.4687.0834-.0431.1572-.0927.2324-.1484.2248-.1664.4729-.3281.6614-.5385.4989-.557.8748-1.2114,1.0465-1.945.1339-.5721.1968-1.1838.1851-1.7736-.0037-.1883-.0133-.3769-.0335-.5641-.033-.3056-.0562-.6139-.1447-.9081-.1607-.5342-.4021-.8934-.7729-1.3061-.6506-.7241-1.6576-.8828-2.5603-1.0498-.821-.1519-1.6465-.2656-2.474-.3757-.5861-.078-1.3713.3358-1.7678.7322-.4336.4336-.7601,1.145-.7322,1.7678.029.6466.2413,1.3171.7322,1.7678l.506.3909c.3899.2261.8105.3399,1.2618.3413l.0865.0115-.6646-.0893c.5187.0703,1.036.1509,1.5512.2436.4707.0847.9902.1368,1.437.3124l-.5972-.252c.0624.0302.1131.0606.1682.1026l-.506-.3909c.0347.0299.0649.0639.0904.102l-.3909-.506c.0258.0389.0469.0803.0631.1241l-.252-.5972c.0227.0697.0383.1353.0509.2075l-.0893-.6646c.0586.4664.0578.9518-.004,1.4177l.0893-.6646c-.0344.231-.0876.4554-.1745.6725l.252-.5972c-.0583.1348-.1276.26-.2147.3783l.3909-.506c-.0675.0848-.1404.1603-.2236.23l.506-.3909c-.0893.0687-.1823.1248-.2843.1728l.5972-.252c-.1064.0439-.2115.0748-.3246.0948l.6646-.0893c-.1333.0165-.2615.0157-.3949-.0004l.6646.0893c-.1586-.0262-.3064-.071-.4549-.1324l.5972.252c-.1967-.089-.3774-.2003-.5501-.3297l.506.3909c-.2497-.1963-.4676-.4205-.6637-.67l.3909.506c-.3489-.4551-.6371-.9477-.8641-1.4743l.252.5972c-.1605-.3845-.286-.7794-.3761-1.1862-.1318-.5946-.6334-1.1924-1.1489-1.4941-.5359-.3136-1.3256-.4464-1.9264-.252-.6049.1958-1.1886.5706-1.4941,1.1489-.3234.6121-.4031,1.2449-.252,1.9264h0Z"/><path class="cls-4" d="m400.8187,76.0119c-.4472.2843-.3926,1.0162-.0046,1.3772s.9669.4256,1.4953.3843c.5655-.0442,1.1973-.2483,1.4229-.7688.2643-.6097-.2117-1.3351-.8277-1.5841s-1.3105-.1551-1.9677-.0573"/><path class="cls-5" d="m399.5569,73.8532c-.469.3163-.8154.6209-1.1063,1.1146-.3088.5242-.3949.9871-.4426,1.5819-.0057.0706-.0052.1395.0012.21.0239.2635.0503.5468.1144.8049.0826.3322.2206.6696.4151.9532.3577.5215.6208.7855,1.1497,1.1395.3093.207.6735.3501,1.0281.453.355.1031.736.1375,1.1013.1657.1701.0131.3415.01.5114-.0045.349-.0297.7017-.07,1.0442-.1464.3476-.0775.7094-.2434,1.0188-.3907.3077-.1465.5806-.3792.8344-.5971.0583-.0501.1082-.106.1566-.1654.1718-.2111.3661-.4252.4914-.67.2914-.5692.391-.96.4306-1.6029.0221-.3596-.0318-.7467-.1536-1.0862-.0897-.2498-.1956-.5073-.3156-.7441-.037-.0731-.0813-.1412-.1291-.2076-.155-.2147-.3161-.4381-.4967-.633-.1294-.1396-.2862-.2483-.4362-.3642-.1479-.1143-.2943-.2416-.4598-.3322-.25-.1369-.5273-.2414-.7937-.3412-.399-.1493-.8558-.1847-1.271-.2191-.6554-.0544-1.3356.0856-1.9772.1808-.3253.0773-.6087.2265-.8502.4475-.2722.1763-.4868.4101-.6439.7014-.1827.287-.2816.5968-.2967.9295-.0744.3323-.0595.6646.0447.9969.1958.6049.5706,1.1886,1.1489,1.4941l.5972.252c.4431.1191.8861.1191,1.3292,0,.1045-.0155.209-.0306.3137-.0447l-.6646.0893c.3833-.0498.7687-.0801,1.1535-.0295l-.6646-.0893c.1855.0283.3649.0743.5381.1474l-.5972-.252c.1134.0519.218.1155.317.1911l-.506-.3909c.0976.0787.185.1657.2639.2631l-.3909-.506c.0749.0977.1377.2008.1884.313l-.252-.5972c.0407.0982.0697.1973.0861.3024l-.0893-.6646c.0108.0913.011.1793-.0004.2706l.0893-.6646c-.0133.0792-.0346.1536-.0649.2281l.252-.5972c-.0326.0711-.0708.1365-.1169.1998l.3909-.506c-.0636.0808-.1352.1503-.2163.2133l.506-.3909c-.0956.0697-.1972.1263-.3051.1744l.5972-.252c-.2007.0841-.4102.1348-.6254.1646l.6646-.0893c-.2605.0324-.5235.0374-.7843.0056l.6646.0893c-.161-.0228-.3164-.0602-.4679-.1199l.5972.252c-.1073-.0458-.2068-.1009-.3014-.1691l.506.3909c-.0731-.0567-.138-.1168-.1963-.1887l.3909.506c-.0506-.0676-.0918-.1379-.1269-.2148l.252.5972c-.037-.0891-.0628-.1795-.0782-.2748l.0893.6646c-.012-.0938-.013-.1856-.0015-.2795l-.0893.6646c.011-.0678.0279-.1321.0527-.1962l-.252.5972c.0273-.0621.0599-.118.1014-.1718l-.3909.506c.0297-.0347.061-.0657.0959-.0952l-.506.3909c.0182-.0145.037-.028.0567-.0405.2913-.1571.5251-.3717.7014-.6439.221-.2415.3701-.5249.4475-.8502.1042-.3323.1191-.6646.0447-.9969-.0151-.3327-.114-.6425-.2967-.9295-.3442-.5338-.8566-1.0037-1.4941-1.1489-.632-.1439-1.3703-.123-1.9264.252h0Z"/></svg>